<svg xmlns="http://www.w3.org/2000/svg" viewBox="0 0 500 500"><g id="freepik--background-complete--inject-55"><path d="M295.06,74.2c.59-4.28-5.45-7.79-10-8.16-2.16-.17-4.41.16-6.46-.56-4.44-1.55-6.21-7.28-10.54-9.11-3.24-1.37-7-.15-10.11,1.43s-6.24,3.57-9.75,3.79c-3.05.2-6.37-.93-9,.56-2,1.11-3,3.4-4.86,4.75s-4.14,1.61-6.36,1.73-4.53.14-6.56,1.07-3.7,3.07-3.28,5.26Z" style="fill:#fafafa"></path><path d="M446.08,192.35c.86-6.26-8-11.4-14.6-11.94-3.16-.25-6.45.23-9.45-.81-6.49-2.27-9.08-10.66-15.42-13.33-4.74-2-10.19-.22-14.78,2.09s-9.13,5.22-14.26,5.55c-4.46.29-9.31-1.37-13.21.81-2.91,1.63-4.44,5-7.12,7s-6,2.34-9.3,2.52-6.62.21-9.59,1.57-5.41,4.49-4.8,7.69Z" style="fill:#f5f5f5"></path><path d="M126.75,56.62c.59-4.28-5.45-7.8-10-8.16-2.16-.18-4.41.15-6.46-.56-4.44-1.55-6.21-7.29-10.54-9.11-3.24-1.37-7-.15-10.11,1.43S83.41,43.79,79.9,44c-3.05.2-6.37-.94-9,.56-2,1.11-3,3.4-4.86,4.75s-4.14,1.6-6.36,1.73-4.53.14-6.56,1.07-3.7,3.07-3.28,5.26Z" style="fill:#f5f5f5"></path><path d="M440.27,57.8c.43-3.11-4-5.67-7.26-5.94-1.57-.12-3.2.12-4.7-.4-3.22-1.13-4.51-5.3-7.67-6.63-2.35-1-5.06-.11-7.35,1s-4.54,2.6-7.09,2.76c-2.22.14-4.63-.68-6.57.4-1.45.81-2.21,2.48-3.54,3.46a8.4,8.4,0,0,1-4.63,1.26,12.93,12.93,0,0,0-4.76.78c-1.48.67-2.7,2.23-2.39,3.82Z" style="fill:#f5f5f5"></path><path d="M84.71,157.05c.43-3.11-4-5.67-7.26-5.93-1.57-.13-3.21.11-4.7-.41-3.23-1.12-4.52-5.3-7.67-6.63-2.36-1-5.07-.1-7.35,1s-4.54,2.6-7.09,2.76c-2.22.15-4.63-.68-6.58.41-1.44.81-2.2,2.47-3.53,3.46A8.5,8.5,0,0,1,35.9,153a13,13,0,0,0-4.77.78,3.78,3.78,0,0,0-2.39,3.83Z" style="fill:#f5f5f5"></path></g><g id="freepik--Plants--inject-55"><path d="M42.36,417.39a9.17,9.17,0,0,1,4.76,5.39,16.23,16.23,0,0,1,.63,7.3c-.53,4.73-3.23,9.51-6.12,13.3-4-3.48-4.91-9.56-5.18-12.66-.43-4.92,1.78-14.06,5.91-13.33" style="fill:#FF725E"></path><path d="M46.26,451.2a7.84,7.84,0,0,1,2.53-7.45,10.41,10.41,0,0,1,7.67-2.39,4.35,4.35,0,0,1,3.37,1.51,3.34,3.34,0,0,1,.05,3.39,6.79,6.79,0,0,1-2.51,2.48c-3.46,2.16-7.2,3.63-11.11,2.46" style="fill:#FF725E"></path><path d="M41.15,465.72a4.82,4.82,0,0,1,.14-1c.13-.69.29-1.57.48-2.63a27.49,27.49,0,0,1,2.72-8.41,16.8,16.8,0,0,1,6-6.41A10.89,10.89,0,0,1,53,446.22c.3-.1.54-.14.7-.18a.72.72,0,0,1,.26,0,18.36,18.36,0,0,0-3.3,1.51,17.46,17.46,0,0,0-5.85,6.37A29.37,29.37,0,0,0,42,462.17c-.24,1.1-.44,2-.59,2.6A5.64,5.64,0,0,1,41.15,465.72Z" style="fill:#263238"></path><path d="M41.3,424.5a2.14,2.14,0,0,1,.05.43c0,.31,0,.72.07,1.22.06,1.06.12,2.59.18,4.49.12,3.79.22,9,.19,14.83s-.16,11-.32,14.84c-.08,1.9-.15,3.43-.22,4.49,0,.5-.06.91-.08,1.22a2.14,2.14,0,0,1-.05.43,1.49,1.49,0,0,1,0-.43c0-.32,0-.72,0-1.22,0-1.11.06-2.63.11-4.5.09-3.79.19-9,.22-14.83s0-11-.09-14.82c0-1.87-.06-3.39-.08-4.5v-1.22A2.06,2.06,0,0,1,41.3,424.5Z" style="fill:#263238"></path><path d="M39.36,454.08a18.34,18.34,0,0,0-10-13.42c-1.33-.64-3.07-1.06-4.17-.06s-.85,2.77-.31,4.15a15.65,15.65,0,0,0,14.39,9.72" style="fill:#FF725E"></path><path d="M30,445.15a4.64,4.64,0,0,1,.84.37,10.51,10.51,0,0,1,1,.51c.36.23.79.44,1.22.77a15.65,15.65,0,0,1,1.39,1,19.92,19.92,0,0,1,1.48,1.35,20.55,20.55,0,0,1,2.82,3.62,20,20,0,0,1,1.85,4.2A16,16,0,0,1,41,459a13.23,13.23,0,0,1,.24,1.73,12.66,12.66,0,0,1,.07,1.44,8.93,8.93,0,0,1,0,1.08,4.42,4.42,0,0,1-.11.92c-.07,0,.06-1.32-.17-3.41a14.64,14.64,0,0,0-.28-1.7c-.11-.61-.3-1.24-.49-1.91A20.49,20.49,0,0,0,38.42,453a20.71,20.71,0,0,0-2.75-3.58,17.8,17.8,0,0,0-1.44-1.35A16.48,16.48,0,0,0,32.89,447C31.17,445.77,30,445.22,30,445.15Z" style="fill:#263238"></path><path d="M440.22,466.19c-.11,0,.08-1.52-.26-3.91a15.6,15.6,0,0,0-.38-1.93,21.13,21.13,0,0,0-.67-2.16,20.67,20.67,0,0,0-5.86-8.42,18.59,18.59,0,0,0-1.79-1.37,15.44,15.44,0,0,0-1.68-1c-2.13-1.14-3.62-1.49-3.58-1.6a4.77,4.77,0,0,1,1,.22,7.74,7.74,0,0,1,1.19.39,12.48,12.48,0,0,1,1.52.67,12.84,12.84,0,0,1,1.75,1,19,19,0,0,1,1.86,1.36,19.92,19.92,0,0,1,6,8.62,18.16,18.16,0,0,1,.64,2.23,14.33,14.33,0,0,1,.33,2,14.5,14.5,0,0,1,.09,1.66,7.86,7.86,0,0,1-.05,1.25A4.24,4.24,0,0,1,440.22,466.19Z" style="fill:#263238"></path><path d="M452.12,421.91a2.65,2.65,0,0,1-.09.46c-.09.35-.21.77-.35,1.28-.32,1.11-.74,2.73-1.2,4.75s-.93,4.42-1.34,7.12-.7,5.69-.85,8.83-.09,6.15,0,8.88.41,5.17.69,7.22.56,3.69.78,4.83c.09.52.16,1,.22,1.31a1.5,1.5,0,0,1,.05.47,1.53,1.53,0,0,1-.15-.45c-.09-.35-.19-.78-.32-1.29-.28-1.12-.61-2.77-.94-4.82s-.62-4.5-.81-7.24a82.06,82.06,0,0,1,.81-17.81c.44-2.71.94-5.13,1.46-7.14s1-3.62,1.37-4.72c.17-.5.32-.91.44-1.26S452.1,421.9,452.12,421.91Z" style="fill:#263238"></path><path d="M472,440.4a24.54,24.54,0,0,0-4.18,2.08,21.59,21.59,0,0,0-7.17,8.5,41.49,41.49,0,0,0-3.24,10.8c-.22,1.36-.4,2.49-.55,3.4a5.72,5.72,0,0,1-.25,1.24,6,6,0,0,1,.05-1.26c.06-.82.18-2,.39-3.44a37.4,37.4,0,0,1,3.13-11,20.85,20.85,0,0,1,7.44-8.58,14.2,14.2,0,0,1,3.15-1.48A4.36,4.36,0,0,1,472,440.4Z" style="fill:#263238"></path><path d="M475.05,286.39c1.76-4.78,1.4-12.44-2.52-15.7a12.77,12.77,0,0,0-14.31-1.15,12.74,12.74,0,0,0-21.05-12.7,16.86,16.86,0,1,0-31.27,8.21,12,12,0,0,0-5.22,21.37Z" style="fill:#455a64"></path><path d="M24.31,286.39c-1.77-4.78-1.41-12.44,2.51-15.7a12.77,12.77,0,0,1,14.31-1.15,12.74,12.74,0,0,1,21-12.7A16.86,16.86,0,0,1,92,245.54a17.32,17.32,0,0,1,1.48,19.51,12,12,0,0,1,5.21,21.37Z" style="fill:#455a64"></path></g><g id="freepik--Parthenon--inject-55"><polygon points="104.42 141.36 109.39 147.51 129.49 147.51 135.24 141.99 133.75 140.81 104.42 141.36" style="fill:#e0e0e0"></polygon><path d="M104.42,141.36a3.35,3.35,0,0,1,.54,0l1.63-.06,6.15-.19c5.24-.15,12.64-.37,21-.53h.09l.08,0,1.49,1.18.24.19-.22.21-1.71,1.64-4,3.87-.08.07h-.1l-20.1-.09h-.08l0-.06c-1.58-2-2.8-3.58-3.61-4.64l-.93-1.21-.3-.4a4.11,4.11,0,0,1,.38.43l1,1.2,3.7,4.41-.13-.06,20.1-.09-.18.07,4-3.88,1.71-1.64,0,.39L133.59,141l.16.05c-8.22.16-15.48.21-20.75.26l-6.24,0h-2.34Z" style="fill:#263238"></path><polygon points="105.85 260.07 109.39 147.51 129.49 147.51 134.22 260.07 105.85 260.07" style="fill:#e0e0e0"></polygon><path d="M105.85,260.07h.5l1.44,0,5.56,0,20.87-.08-.16.16c-1.05-24.6-2.75-64-4.66-108.4-.05-1.39-.11-2.78-.17-4.16l.26.25h-20.1l.26-.25c-1.06,32-2,60.08-2.64,80.21-.35,10.07-.63,18.14-.82,23.71-.1,2.78-.18,4.93-.24,6.4,0,.72,0,1.28-.06,1.67s0,.57,0,.57v-.54c0-.38,0-.93,0-1.63,0-1.47.09-3.6.16-6.35.16-5.56.39-13.61.67-23.65.61-20.18,1.45-48.35,2.41-80.4v-.25h20.6v.25c.06,1.38.12,2.76.17,4.16,1.83,44.37,3.45,83.8,4.46,108.41v.16h-.17l-21-.09-5.53,0-1.41,0A4,4,0,0,1,105.85,260.07Z" style="fill:#263238"></path><path d="M110,260.07c-.14,0,.38-25.18,1.18-56.23s1.55-56.22,1.7-56.22-.39,25.18-1.18,56.24S110.15,260.08,110,260.07Z" style="fill:#263238"></path><path d="M115,259.78a.94.94,0,0,1,0-.29l0-.85q0-1.18,0-3.27c0-2.88,0-7,0-12,0-10.18.11-24.18.18-39.65s.25-29.47.34-39.65c.06-5.05.12-9.15.16-12,0-1.39.05-2.48.07-3.27,0-.35,0-.63,0-.85a1.11,1.11,0,0,1,0-.29,1.64,1.64,0,0,1,0,.29c0,.22,0,.5,0,.85q0,1.19,0,3.27c0,2.87,0,7,0,12,0,10.18-.12,24.18-.19,39.65s-.24,29.47-.33,39.65c-.07,5.05-.12,9.14-.16,12,0,1.39,0,2.48-.07,3.27,0,.35,0,.63,0,.85A1.11,1.11,0,0,1,115,259.78Z" style="fill:#263238"></path><path d="M120.21,259.78a1.11,1.11,0,0,1,0-.29c0-.22,0-.5,0-.85,0-.79,0-1.88-.08-3.27,0-2.88-.12-7-.21-12-.13-10.18-.3-24.18-.49-39.65S119.1,174.22,119,164c0-5,0-9.14,0-12,0-1.39,0-2.48,0-3.26,0-.35,0-.63,0-.85a1,1,0,0,1,0-.29,1,1,0,0,1,0,.28c0,.22,0,.5,0,.85q0,1.19.09,3.27c0,2.88.12,7,.2,12,.13,10.18.31,24.18.5,39.66s.25,29.47.34,39.65c0,5,0,9.14,0,12,0,1.39,0,2.48,0,3.27,0,.35,0,.63,0,.85A1.64,1.64,0,0,1,120.21,259.78Z" style="fill:#263238"></path><path d="M125.18,259.77a1.11,1.11,0,0,1,0-.29c0-.22,0-.5,0-.85q0-1.19-.12-3.27c-.08-2.87-.2-7-.34-12-.24-10.18-.57-24.18-.93-39.65s-.58-29.47-.78-39.65c-.07-5-.13-9.14-.17-12,0-1.39,0-2.48,0-3.26v-.85a1,1,0,0,1,0-.29,1.67,1.67,0,0,1,0,.28c0,.22,0,.5,0,.85q0,1.19.12,3.27c.08,2.87.2,7,.34,12,.24,10.18.57,24.18.93,39.65s.58,29.47.77,39.65c.08,5,.14,9.14.18,12,0,1.39,0,2.48,0,3.27,0,.35,0,.63,0,.85A.94.94,0,0,1,125.18,259.77Z" style="fill:#263238"></path><path d="M129.75,259.77c-.15,0-1.05-25.1-2-56.06s-1.65-56.08-1.51-56.08,1.05,25.09,2,56.06S129.89,259.76,129.75,259.77Z" style="fill:#263238"></path><rect x="103.12" y="135.66" width="33.58" height="7.07" style="fill:#e0e0e0"></rect><path d="M136.7,142.73a3.62,3.62,0,0,1,0-.51c0-.36,0-.82,0-1.4,0-1.25,0-3-.08-5.16l.15.14c-7.31.07-19.62.12-33.58.12h0l.26-.26h0v7l-.26-.26,23.86.12,7.09.07,1.93,0,.7,0a4.8,4.8,0,0,1-.63,0l-1.87,0-7,.07-24,.11h-.26v-7.31h0l.26-.26h0c14,0,26.27,0,33.58.11h.15v.15c0,2.21-.06,4-.08,5.25,0,.56,0,1,0,1.37A2.42,2.42,0,0,1,136.7,142.73Z" style="fill:#263238"></path><polygon points="163.48 141.36 168.45 147.51 188.54 147.51 194.3 141.99 192.8 140.81 163.48 141.36" style="fill:#e0e0e0"></polygon><path d="M163.48,141.36a3.35,3.35,0,0,1,.54,0l1.63-.06,6.15-.19c5.24-.15,12.64-.37,21-.53h.09l.07,0c.47.38,1,.78,1.5,1.18l.23.19-.21.21c-.54.52-1.13,1.07-1.71,1.64l-4.05,3.87-.07.07h-.11l-20.09-.09h-.08l-.05-.06c-1.58-2-2.8-3.58-3.62-4.64l-.93-1.21-.29-.4.38.43,1,1.2,3.7,4.41-.13-.06,20.09-.09-.17.07,4-3.88,1.71-1.64,0,.39-1.5-1.18.17.05c-8.22.16-15.48.21-20.76.26l-6.24,0h-2.33Z" style="fill:#263238"></path><polygon points="164.91 260.07 168.45 147.51 188.54 147.51 193.28 260.07 164.91 260.07" style="fill:#e0e0e0"></polygon><path d="M164.91,260.07h.49l1.44,0,5.57,0,20.87-.08-.16.16c-1.06-24.6-2.75-64-4.66-108.4l-.18-4.16.26.25H168.45l.25-.25c-1,32-2,60.08-2.64,80.21-.34,10.07-.62,18.14-.82,23.71-.1,2.78-.18,4.93-.23,6.4,0,.72,0,1.28-.07,1.67s0,.57,0,.57,0-.17,0-.54l0-1.63c0-1.47.1-3.6.17-6.35.15-5.56.38-13.61.67-23.65.6-20.18,1.45-48.35,2.41-80.4v-.25h20.59v.25c.06,1.38.12,2.76.18,4.16,1.82,44.37,3.44,83.8,4.45,108.41v.16h-.16l-21-.09-5.52,0-1.42,0A3.92,3.92,0,0,1,164.91,260.07Z" style="fill:#263238"></path><path d="M169.07,260.07c-.15,0,.38-25.18,1.17-56.23s1.56-56.22,1.7-56.22-.38,25.18-1.18,56.24S169.21,260.08,169.07,260.07Z" style="fill:#263238"></path><path d="M174.09,259.78a1.11,1.11,0,0,1,0-.29c0-.22,0-.5,0-.85,0-.79,0-1.88,0-3.27v-12c0-10.18.11-24.18.18-39.65s.25-29.47.33-39.65c.07-5.05.12-9.15.16-12,0-1.39.06-2.48.07-3.27,0-.35,0-.63,0-.85a1.11,1.11,0,0,1,0-.29,1.11,1.11,0,0,1,0,.29c0,.22,0,.5,0,.85q0,1.19,0,3.27v12c0,10.18-.11,24.18-.18,39.65s-.25,29.47-.33,39.65c-.07,5.05-.13,9.14-.16,12,0,1.39-.06,2.48-.07,3.27,0,.35,0,.63,0,.85A1.64,1.64,0,0,1,174.09,259.78Z" style="fill:#263238"></path><path d="M179.26,259.78a1.11,1.11,0,0,1,0-.29c0-.22,0-.5,0-.85,0-.79,0-1.88-.08-3.27-.05-2.88-.13-7-.21-12-.13-10.18-.3-24.18-.5-39.65s-.25-29.48-.34-39.66c0-5,0-9.14,0-12,0-1.39,0-2.48,0-3.26,0-.35,0-.63,0-.85a1.51,1.51,0,0,1,0-.29,1,1,0,0,1,0,.28c0,.22,0,.5,0,.85,0,.79,0,1.88.08,3.27.05,2.88.12,7,.21,12,.13,10.18.3,24.18.49,39.66s.26,29.47.34,39.65c0,5,0,9.14,0,12,0,1.39,0,2.48,0,3.27,0,.35,0,.63,0,.85A1.11,1.11,0,0,1,179.26,259.78Z" style="fill:#263238"></path><path d="M184.24,259.77a1.11,1.11,0,0,1,0-.29c0-.22,0-.5-.05-.85q0-1.19-.12-3.27c-.08-2.87-.2-7-.34-12-.24-10.18-.56-24.18-.93-39.65s-.57-29.47-.77-39.65c-.07-5-.13-9.14-.18-12,0-1.39,0-2.48,0-3.26,0-.35,0-.63,0-.85a1.51,1.51,0,0,1,0-.29.9.9,0,0,1,0,.28c0,.22,0,.5,0,.85q0,1.19.12,3.27c.08,2.87.19,7,.34,12,.24,10.18.56,24.18.93,39.65s.57,29.47.77,39.65c.07,5,.13,9.14.18,12,0,1.39,0,2.48,0,3.27,0,.35,0,.63,0,.85A1.64,1.64,0,0,1,184.24,259.77Z" style="fill:#263238"></path><path d="M188.8,259.77c-.14,0-1.05-25.1-2-56.06s-1.66-56.08-1.51-56.08,1,25.09,2,56.06S189,259.76,188.8,259.77Z" style="fill:#263238"></path><rect x="162.18" y="135.66" width="33.58" height="7.07" style="fill:#e0e0e0"></rect><path d="M195.75,142.73a3.62,3.62,0,0,1,0-.51c0-.36,0-.82,0-1.4,0-1.25-.05-3-.08-5.16l.14.14c-7.3.07-19.62.12-33.57.12h0l.26-.26h0v3.57c0,1.18,0,2.34,0,3.48l-.25-.26,23.85.12,7.1.07,1.93,0,.69,0a4.52,4.52,0,0,1-.62,0l-1.88,0-7,.07-24,.11h-.26v-7.31h0l.26-.26h0c13.95,0,26.27,0,33.57.11h.15v.15c0,2.21-.06,4-.08,5.25,0,.56,0,1,0,1.37A2.42,2.42,0,0,1,195.75,142.73Z" style="fill:#263238"></path><polygon points="230.48 141.36 235.44 147.51 255.54 147.51 261.3 141.99 259.8 140.81 230.48 141.36" style="fill:#e0e0e0"></polygon><path d="M230.48,141.36a3.12,3.12,0,0,1,.53,0l1.64-.06,6.14-.19c5.25-.15,12.65-.37,21-.53h.1l.07,0c.47.38,1,.78,1.5,1.18l.23.19-.21.21c-.55.52-1.13,1.07-1.71,1.64l-4,3.87-.07.07h-.11l-20.1-.09h-.08l-.05-.06c-1.58-2-2.79-3.58-3.61-4.64l-.93-1.21a2.61,2.61,0,0,1-.29-.4l.38.43,1,1.2,3.69,4.41-.13-.06,20.1-.09-.17.07,4-3.88,1.71-1.64,0,.39-1.5-1.18.16.05c-8.22.16-15.48.21-20.75.26l-6.24,0h-2.33Z" style="fill:#263238"></path><polygon points="231.9 260.07 235.44 147.51 255.54 147.51 260.27 260.07 231.9 260.07" style="fill:#e0e0e0"></polygon><path d="M231.9,260.07h.5l1.44,0,5.57,0,20.86-.08-.15.16c-1.06-24.6-2.76-64-4.66-108.4l-.18-4.16.26.25h-20.1l.26-.25c-1,32-2,60.08-2.64,80.21-.35,10.07-.62,18.14-.82,23.71-.1,2.78-.18,4.93-.23,6.4,0,.72,0,1.28-.07,1.67s0,.57,0,.57v-.54c0-.38,0-.93,0-1.63,0-1.47.09-3.6.17-6.35.15-5.56.38-13.61.67-23.65.6-20.18,1.45-48.35,2.41-80.4v-.25h20.59v.25c.06,1.38.12,2.76.18,4.16,1.82,44.37,3.44,83.8,4.45,108.41v.16h-.17l-21-.09-5.53,0-1.41,0A4.24,4.24,0,0,1,231.9,260.07Z" style="fill:#263238"></path><path d="M236.06,260.07c-.14,0,.39-25.18,1.18-56.23s1.56-56.22,1.7-56.22-.38,25.18-1.18,56.24S236.21,260.08,236.06,260.07Z" style="fill:#263238"></path><path d="M241.08,259.78s0-.1,0-.29l0-.85q0-1.18,0-3.27v-12c0-10.18.11-24.18.18-39.65s.24-29.47.33-39.65c.07-5.05.12-9.15.16-12,0-1.39,0-2.48.07-3.27,0-.35,0-.63,0-.85a.15.15,0,1,1,.06,0c0,.22,0,.5,0,.85,0,.79,0,1.88,0,3.27,0,2.87,0,7,0,12,0,10.18-.11,24.18-.18,39.65s-.25,29.47-.34,39.65c-.06,5.05-.12,9.14-.16,12,0,1.39-.05,2.48-.07,3.27,0,.35,0,.63,0,.85A1.11,1.11,0,0,1,241.08,259.78Z" style="fill:#263238"></path><path d="M246.26,259.78a1.11,1.11,0,0,1,0-.29c0-.22,0-.5,0-.85q0-1.18-.09-3.27c-.05-2.88-.12-7-.21-12-.12-10.18-.3-24.18-.49-39.65s-.25-29.48-.34-39.66c0-5,0-9.14,0-12,0-1.39,0-2.48,0-3.26,0-.35,0-.63,0-.85a.88.88,0,0,1,0-.29,1,1,0,0,1,0,.28c0,.22,0,.5,0,.85,0,.79,0,1.88.08,3.27.05,2.88.12,7,.21,12,.13,10.18.3,24.18.49,39.66s.26,29.47.34,39.65c0,5,0,9.14,0,12,0,1.39,0,2.48,0,3.27,0,.35,0,.63,0,.85A.94.94,0,0,1,246.26,259.78Z" style="fill:#263238"></path><path d="M251.24,259.77a1.36,1.36,0,0,1,0-.29c0-.22,0-.5,0-.85q0-1.19-.12-3.27c-.08-2.87-.2-7-.34-12-.24-10.18-.57-24.18-.93-39.65s-.57-29.47-.77-39.65c-.08-5-.14-9.14-.18-12,0-1.39,0-2.48,0-3.26,0-.35,0-.63,0-.85a.88.88,0,0,1,0-.29.9.9,0,0,1,0,.28c0,.22,0,.5,0,.85,0,.79.06,1.88.11,3.27.09,2.87.2,7,.35,12,.23,10.18.56,24.18.92,39.65s.58,29.47.78,39.65c.07,5,.13,9.14.17,12,0,1.39,0,2.48,0,3.27v.85A1.64,1.64,0,0,1,251.24,259.77Z" style="fill:#263238"></path><path d="M255.8,259.77c-.14,0-1.05-25.1-2-56.06s-1.65-56.08-1.51-56.08,1.06,25.09,2,56.06S256,259.76,255.8,259.77Z" style="fill:#263238"></path><rect x="229.17" y="135.66" width="33.58" height="7.07" style="fill:#e0e0e0"></rect><path d="M262.75,142.73a3.62,3.62,0,0,1,0-.51c0-.36,0-.82,0-1.4,0-1.25-.05-3-.09-5.16l.15.14c-7.3.07-19.62.12-33.57.12h0l.26-.26h0v7l-.26-.26,23.86.12,7.1.07,1.93,0,.69,0a4.61,4.61,0,0,1-.63,0l-1.87,0-7,.07-24,.11h-.25v-3.74c0-.59,0-1.19,0-1.79v-1.78h0l.26-.26h0c13.95,0,26.27,0,33.57.11h.15v.15c0,2.21-.06,4-.08,5.25,0,.56,0,1,0,1.37A2.42,2.42,0,0,1,262.75,142.73Z" style="fill:#263238"></path><polygon points="297.48 141.36 302.44 147.51 322.54 147.51 328.29 141.99 326.8 140.81 297.48 141.36" style="fill:#e0e0e0"></polygon><path d="M297.48,141.36a3.12,3.12,0,0,1,.53,0l1.63-.06,6.15-.19c5.24-.15,12.64-.37,21-.53h.09l.08,0c.47.38,1,.78,1.5,1.18l.23.19-.22.21c-.54.52-1.12,1.07-1.7,1.64l-4,3.87-.08.07h-.1l-20.1-.09h-.08l-.05-.06c-1.58-2-2.79-3.58-3.61-4.64l-.93-1.21a2.61,2.61,0,0,1-.29-.4l.38.43,1,1.2,3.7,4.41-.13-.06,20.1-.09-.18.07,4.05-3.88,1.7-1.64,0,.39L326.64,141l.16.05c-8.22.16-15.48.21-20.75.26l-6.24,0h-2.33Z" style="fill:#263238"></path><polygon points="298.9 260.07 302.44 147.51 322.54 147.51 327.27 260.07 298.9 260.07" style="fill:#e0e0e0"></polygon><path d="M298.9,260.07h.5l1.44,0,5.56,0,20.87-.08-.15.16c-1.06-24.6-2.76-64-4.66-108.4l-.18-4.16.26.25h-20.1l.26-.25c-1.05,32-2,60.08-2.64,80.21-.35,10.07-.63,18.14-.82,23.71-.1,2.78-.18,4.93-.23,6.4,0,.72-.06,1.28-.07,1.67s0,.57,0,.57v-.54c0-.38,0-.93,0-1.63,0-1.47.09-3.6.16-6.35.16-5.56.39-13.61.67-23.65.61-20.18,1.45-48.35,2.42-80.4v-.25h20.6v.25c.06,1.38.12,2.76.18,4.16,1.82,44.37,3.44,83.8,4.45,108.41v.16h-.17l-21-.09-5.53,0-1.41,0A4,4,0,0,1,298.9,260.07Z" style="fill:#263238"></path><path d="M303.06,260.07c-.14,0,.39-25.18,1.18-56.23s1.55-56.22,1.7-56.22-.39,25.18-1.18,56.24S303.21,260.08,303.06,260.07Z" style="fill:#263238"></path><path d="M308.08,259.78a.94.94,0,0,1,0-.29l0-.85q0-1.18,0-3.27c0-2.88,0-7,0-12,.05-10.18.11-24.18.19-39.65s.24-29.47.33-39.65c.07-5.05.12-9.15.16-12,0-1.39.05-2.48.07-3.27,0-.35,0-.63,0-.85a1.11,1.11,0,0,1,0-.29.94.94,0,0,1,0,.29c0,.22,0,.5,0,.85q0,1.19,0,3.27c0,2.87,0,7,0,12-.05,10.18-.11,24.18-.18,39.65s-.25,29.47-.34,39.65c-.06,5.05-.12,9.14-.16,12,0,1.39,0,2.48-.07,3.27,0,.35,0,.63,0,.85A1.11,1.11,0,0,1,308.08,259.78Z" style="fill:#263238"></path><path d="M313.26,259.78a1.11,1.11,0,0,1,0-.29c0-.22,0-.5,0-.85,0-.79,0-1.88-.08-3.27-.05-2.88-.12-7-.21-12-.12-10.18-.3-24.18-.49-39.65s-.25-29.48-.34-39.66c0-5,0-9.14-.05-12,0-1.39,0-2.48,0-3.26l0-.85a.88.88,0,0,1,0-.29,1,1,0,0,1,0,.28c0,.22,0,.5,0,.85q0,1.19.09,3.27c0,2.88.12,7,.21,12,.12,10.18.3,24.18.49,39.66s.25,29.47.34,39.65c0,5,0,9.14,0,12,0,1.39,0,2.48,0,3.27,0,.35,0,.63,0,.85A.94.94,0,0,1,313.26,259.78Z" style="fill:#263238"></path><path d="M318.23,259.77a2.25,2.25,0,0,1,0-.29c0-.22,0-.5,0-.85q0-1.19-.12-3.27c-.08-2.87-.2-7-.34-12-.24-10.18-.57-24.18-.93-39.65s-.58-29.47-.77-39.65c-.08-5-.14-9.14-.18-12,0-1.39,0-2.48,0-3.26,0-.35,0-.63,0-.85a.88.88,0,0,1,0-.29.9.9,0,0,1,0,.28c0,.22,0,.5,0,.85q0,1.19.12,3.27c.08,2.87.2,7,.34,12,.24,10.18.57,24.18.93,39.65s.58,29.47.78,39.65c.07,5,.13,9.14.17,12,0,1.39,0,2.48,0,3.27,0,.35,0,.63,0,.85A.94.94,0,0,1,318.23,259.77Z" style="fill:#263238"></path><path d="M322.8,259.77c-.14,0-1.05-25.1-2-56.06s-1.65-56.08-1.51-56.08,1.05,25.09,2,56.06S322.94,259.76,322.8,259.77Z" style="fill:#263238"></path><rect x="296.17" y="135.66" width="33.58" height="7.07" style="fill:#e0e0e0"></rect><path d="M329.75,142.73a3.62,3.62,0,0,1,0-.51c0-.36,0-.82,0-1.4,0-1.25,0-3-.08-5.16l.15.14c-7.31.07-19.62.12-33.58.12h0l.26-.26h0v7l-.26-.26,23.86.12,7.1.07,1.93,0,.69,0a4.8,4.8,0,0,1-.63,0l-1.87,0-7,.07-24,.11h-.25v-.26c0-1.14,0-2.3,0-3.48v-3.57h0l.26-.26h0c14,0,26.27,0,33.58.11h.15v.15c0,2.21-.06,4-.08,5.25,0,.56,0,1,0,1.37A2.42,2.42,0,0,1,329.75,142.73Z" style="fill:#263238"></path><polygon points="364.47 141.36 369.44 147.51 389.54 147.51 395.29 141.99 393.8 140.81 364.47 141.36" style="fill:#e0e0e0"></polygon><path d="M364.47,141.36a3.35,3.35,0,0,1,.54,0l1.63-.06,6.15-.19c5.24-.15,12.64-.37,21-.53h.09l.07,0,1.5,1.18.24.19-.22.21-1.71,1.64-4,3.87-.08.07h-.1l-20.1-.09h-.08l-.05-.06c-1.58-2-2.8-3.58-3.62-4.64l-.92-1.21c-.21-.27-.31-.41-.3-.4a4.11,4.11,0,0,1,.38.43l1,1.2,3.7,4.41-.13-.06,20.1-.09-.18.07,4-3.88,1.71-1.64,0,.39-1.5-1.18.17.05c-8.22.16-15.48.21-20.75.26l-6.24,0h-2.34Z" style="fill:#263238"></path><polygon points="365.9 260.07 369.44 147.51 389.54 147.51 394.27 260.07 365.9 260.07" style="fill:#e0e0e0"></polygon><path d="M365.9,260.07h.5l1.44,0,5.56,0,20.87-.08-.16.16c-1.05-24.6-2.75-64-4.66-108.4-.06-1.39-.11-2.78-.17-4.16l.26.25h-20.1l.26-.25c-1.06,32-2,60.08-2.64,80.21-.35,10.07-.63,18.14-.82,23.71-.1,2.78-.18,4.93-.24,6.4,0,.72-.05,1.28-.06,1.67s0,.57,0,.57,0-.17,0-.54l0-1.63c0-1.47.09-3.6.16-6.35.16-5.56.39-13.61.67-23.65.61-20.18,1.45-48.35,2.41-80.4v-.25h20.6v.25c.06,1.38.12,2.76.17,4.16,1.83,44.37,3.45,83.8,4.46,108.41v.16h-.17l-21-.09-5.53,0-1.41,0A4,4,0,0,1,365.9,260.07Z" style="fill:#263238"></path><path d="M370.06,260.07c-.14,0,.38-25.18,1.18-56.23s1.55-56.22,1.7-56.22-.39,25.18-1.18,56.24S370.2,260.08,370.06,260.07Z" style="fill:#263238"></path><path d="M375.08,259.78a.94.94,0,0,1,0-.29c0-.22,0-.5,0-.85,0-.79,0-1.88,0-3.27,0-2.88,0-7,0-12,.05-10.18.11-24.18.18-39.65s.25-29.47.34-39.65c.06-5.05.12-9.15.16-12,0-1.39.05-2.48.07-3.27,0-.35,0-.63,0-.85a1.11,1.11,0,0,1,0-.29,1.64,1.64,0,0,1,0,.29l0,.85q0,1.19,0,3.27v12c0,10.18-.11,24.18-.18,39.65s-.24,29.47-.33,39.65c-.07,5.05-.12,9.14-.16,12,0,1.39,0,2.48-.07,3.27,0,.35,0,.63,0,.85A1.11,1.11,0,0,1,375.08,259.78Z" style="fill:#263238"></path><path d="M380.26,259.78a1.11,1.11,0,0,1,0-.29c0-.22,0-.5,0-.85,0-.79-.05-1.88-.08-3.27-.05-2.88-.12-7-.21-12-.13-10.18-.3-24.18-.49-39.65s-.26-29.48-.34-39.66c0-5,0-9.14-.05-12,0-1.39,0-2.48,0-3.26,0-.35,0-.63,0-.85a1,1,0,0,1,0-.29,1,1,0,0,1,0,.28c0,.22,0,.5,0,.85q0,1.19.09,3.27c0,2.88.12,7,.2,12,.13,10.18.31,24.18.5,39.66s.25,29.47.34,39.65c0,5,0,9.14,0,12,0,1.39,0,2.48,0,3.27,0,.35,0,.63,0,.85A1.64,1.64,0,0,1,380.26,259.78Z" style="fill:#263238"></path><path d="M385.23,259.77a1.11,1.11,0,0,1,0-.29c0-.22,0-.5,0-.85q0-1.19-.12-3.27c-.09-2.87-.2-7-.34-12-.24-10.18-.57-24.18-.93-39.65s-.58-29.47-.78-39.65c-.07-5-.13-9.14-.17-12,0-1.39,0-2.48,0-3.26v-.85a1,1,0,0,1,0-.29,1.67,1.67,0,0,1,0,.28c0,.22,0,.5,0,.85q0,1.19.12,3.27c.08,2.87.2,7,.34,12,.24,10.18.57,24.18.93,39.65s.57,29.47.77,39.65c.08,5,.14,9.14.18,12,0,1.39,0,2.48,0,3.27,0,.35,0,.63,0,.85A.94.94,0,0,1,385.23,259.77Z" style="fill:#263238"></path><path d="M389.8,259.77c-.15,0-1.05-25.1-2-56.06s-1.65-56.08-1.51-56.08,1.05,25.09,2,56.06S389.94,259.76,389.8,259.77Z" style="fill:#263238"></path><rect x="363.17" y="135.66" width="33.58" height="7.07" style="fill:#e0e0e0"></rect><path d="M396.75,142.73a3.62,3.62,0,0,1,0-.51c0-.36,0-.82,0-1.4,0-1.25-.05-3-.08-5.16l.15.14c-7.31.07-19.62.12-33.58.12h0l.26-.26h0v7l-.26-.26,23.86.12,7.09.07,1.93,0,.7,0a4.8,4.8,0,0,1-.63,0l-1.87,0-7,.07-24,.11h-.26v-7.31h0l.26-.26h0c14,0,26.27,0,33.58.11h.15v.15c0,2.21-.06,4-.08,5.25,0,.56,0,1,0,1.37A2.42,2.42,0,0,1,396.75,142.73Z" style="fill:#263238"></path><rect x="71.42" y="268.46" width="354.57" height="8.95" style="fill:#e0e0e0"></rect><rect x="56.01" y="277.44" width="379.98" height="8.95" style="fill:#e0e0e0"></rect><rect x="88.48" y="259.77" width="320.3" height="8.95" style="fill:#e0e0e0"></rect><path d="M409.16,259.63c0,.14-71.81.26-160.38.26s-160.39-.12-160.39-.26,71.8-.26,160.39-.26S409.16,259.48,409.16,259.63Z" style="fill:#263238"></path><path d="M409.16,268.27c0,.15-71.81.26-160.38.26s-160.39-.11-160.39-.26,71.8-.26,160.39-.26S409.16,268.13,409.16,268.27Z" style="fill:#263238"></path><path d="M436,277.31c0,.14-81.63.26-182.31.26s-182.32-.12-182.32-.26,81.61-.26,182.32-.26S436,277.17,436,277.31Z" style="fill:#263238"></path><rect x="94.47" y="104.77" width="311.76" height="17.34" style="fill:#e0e0e0"></rect><path d="M406.23,122.11s0-.36,0-1.07,0-1.78,0-3.21c0-2.87,0-7.19-.05-13.06l.08.08L94.48,105h0l.26-.26v17.34l-.26-.26,221,.11,66.44.08,18,0,4.69,0,1.61,0-1.57,0-4.66,0-18,0-66.38.08-221.19.11h-.26V104.51h.27l311.75.18h.08v.08c0,5.89,0,10.23-.05,13.11,0,1.42,0,2.48,0,3.19S406.23,122.11,406.23,122.11Z" style="fill:#263238"></path><rect x="94.47" y="128.15" width="311.76" height="7.51" style="fill:#e0e0e0"></rect><path d="M406.23,135.66s0-.64,0-1.89,0-3.12,0-5.62l.05,0-311.75.21h0l.26-.26v7.51l-.26-.26,220.65.1,66.66.08,18.11,0,4.72,0,1.62,0-1.58,0H400l-18.06,0-66.59.08-220.85.11h-.26v-8h.27l311.75.21h.06v.06c0,2.51,0,4.39,0,5.65S406.23,135.66,406.23,135.66Z" style="fill:#263238"></path><polygon points="89.67 97.67 169.87 72.26 175.43 72.26 188.28 97.67 89.67 97.67" style="fill:#ebebeb"></polygon><path d="M89.67,97.67l98.61-.26-.23.38-4.41-8.72c-2.88-5.71-5.71-11.3-8.44-16.69l.23.14h-5.49L89.67,97.67,169.79,72h5.8l.07.14,8.44,16.69,4.41,8.72.19.38h-.42Z" style="fill:#263238"></path><path d="M331.13,67.85c1.08.21,78.26,20.88,78.26,20.88L406.75,98h-87l11.42-30.16Z" style="fill:#e0e0e0"></path><path d="M331.13,67.85s-.06.19-.19.55-.33.9-.57,1.58l-2.24,6c-1.95,5.23-4.77,12.76-8.24,22l-.18-.25,72.71-.07h14.33l-.25.19q1.35-4.74,2.65-9.28l.17.32L353.47,74,337.08,69.5l-4.41-1.21L331.53,68l-.4-.12.38.08,1.12.28L337,69.35l16.36,4.29,56.08,14.85.25.06-.07.25q-1.29,4.55-2.63,9.28l-.06.18H392.42l-72.71-.08h-.27l.1-.25c3.57-9.31,6.46-16.85,8.46-22.08,1-2.58,1.78-4.58,2.31-6l.61-1.54C331.05,68,331.13,67.85,331.13,67.85Z" style="fill:#263238"></path><polygon points="85.24 98.96 81.42 91.54 116.94 78.91 120.85 87.92 85.24 98.96" style="fill:#ebebeb"></polygon><path d="M85.24,99A4.51,4.51,0,0,1,86,98.7L88,98l7.48-2.39,25.32-8-.16.34-3.71-8.52L116.7,79l.33.14C102.29,84.4,89.29,89,81.47,91.68l.08-.21,2.73,5.47L85,98.42a2.66,2.66,0,0,1,.24.54,4.26,4.26,0,0,1-.27-.47c-.2-.35-.45-.82-.78-1.42-.69-1.31-1.67-3.15-2.9-5.46l-.08-.15.16-.06c7.77-2.84,20.74-7.49,35.48-12.73l.23-.08.1.22.21.48c1.27,2.92,2.5,5.78,3.7,8.53l.11.26-.27.09L95.4,96,87.92,98.2l-2,.58A6.12,6.12,0,0,1,85.24,99Z" style="fill:#263238"></path><rect x="89.67" y="97.67" width="320.3" height="9.34" style="fill:#e0e0e0"></rect><path d="M410,107s0-.76,0-2.3,0-3.88,0-7l.06.06-320.28.2h0l.26-.26V107l-.26-.26,226.76.11,68.44.07,18.6,0,4.84,0,1.66,0-1.62,0-4.81,0-18.53,0-68.39.08-226.95.11h-.26V97.41h.28l320.28.2H410v.06c0,3.18,0,5.52,0,7.07S410,107,410,107Z" style="fill:#263238"></path><rect x="89.67" y="122.11" width="323.69" height="6.04" style="fill:#e0e0e0"></rect><path d="M413.36,128.15s0-.48,0-1.48,0-2.49,0-4.56l.05,0-323.67.21h0l.26-.26v6l-.26-.26,229,.11,69.25.08,18.83,0,4.9,0c1.11,0,1.68,0,1.68,0h-1.64l-4.87,0-18.77,0-69.18.08-229.23.11h-.26v-6.56h.28l323.67.21h.05v0c0,2.08,0,3.59,0,4.59S413.36,128.15,413.36,128.15Z" style="fill:#263238"></path><path d="M406.75,98c0,.14-17.9-4.1-39.9-9.47s-39.81-9.84-39.77-10S345,82.66,367,88,406.78,97.87,406.75,98Z" style="fill:#263238"></path><path d="M182.07,97.67c-.13.06-3-5.58-6.34-12.59s-6-12.76-5.86-12.82,3,5.58,6.33,12.59S182.2,97.61,182.07,97.67Z" style="fill:#263238"></path></g><g id="freepik--Floor--inject-55"><path d="M486.83,466.2c0,.14-106,.26-236.8.26s-236.82-.12-236.82-.26,106-.26,236.82-.26S486.83,466.05,486.83,466.2Z" style="fill:#263238"></path><path d="M486.83,286.89c0,.14-106,.26-236.8.26S13.21,287,13.21,286.89s106-.26,236.82-.26S486.83,286.74,486.83,286.89Z" style="fill:#263238"></path></g><g id="freepik--Character--inject-55"><path d="M334.84,317.94c.82-.09,27.48,31.94,27.48,31.94s-8.26,8.68-13.74,6.61l-21.81-21.63Z" style="fill:#ffbe9d"></path><path d="M351.05,335.64,364,348.81s17.72-8.69,20.34-6.49l-24.63,25.92-20.94-19.69Z" style="fill:#455a64"></path><path d="M355.21,355.76a1.46,1.46,0,0,0,.52,1.88,1.4,1.4,0,0,0,1.86-.5,1.52,1.52,0,0,0-.55-2,1.46,1.46,0,0,0-1.89.72" style="fill:#e0e0e0"></path><g style="opacity:0.6000000000000001"><path d="M359.66,368.24l-2-2.06L382,342.09s1.6-.67,2.29.23Z" style="fill:#fff"></path></g><path d="M364.22,348.26c.12.13-.42.81-.61,1.82s0,1.85-.12,1.92-.72-.82-.47-2S364.13,348.12,364.22,348.26Z" style="fill:#263238"></path><path d="M367.93,346.61c.15.09-.16.84,0,1.78s.57,1.6.45,1.72-.92-.48-1.05-1.65S367.8,346.5,367.93,346.61Z" style="fill:#263238"></path><path d="M372.65,348.16c-.08.14-.88-.29-1.27-1.27s-.09-1.84.06-1.79.18.76.51,1.57S372.76,348,372.65,348.16Z" style="fill:#263238"></path><path d="M361,345.59c.06.16-.66.57-1.29,1.34s-.94,1.53-1.11,1.49-.11-1,.64-1.89S360.91,345.43,361,345.59Z" style="fill:#263238"></path><path d="M357.28,341.53c.05.14-.67.5-1.28,1.24s-.84,1.51-1,1.48-.13-1,.59-1.81S357.26,341.39,357.28,341.53Z" style="fill:#263238"></path><path d="M356.56,341.63a3.46,3.46,0,0,1-.67-.74,18,18,0,0,1-1.53-2.24c-.14-.26-.28-.52-.41-.82a1.54,1.54,0,0,1-.13-1.08.91.91,0,0,1,.38-.52.81.81,0,0,1,.69-.09,1.53,1.53,0,0,1,.87.91,12.52,12.52,0,0,1,.79,2.26c.1.41.19.83.25,1.25,0,.22.05.42.07.66a1,1,0,0,1-.29.8,2.31,2.31,0,0,1-1.38.36c-.43,0-.85,0-1.27,0a16.62,16.62,0,0,1-2.39-.2,1.78,1.78,0,0,1-.6-.18.77.77,0,0,1-.42-.63.8.8,0,0,1,.35-.62,1.81,1.81,0,0,1,.52-.26,5,5,0,0,1,1.92-.19,5.1,5.1,0,0,1,2.56,1,2.44,2.44,0,0,1,.71.71,7.33,7.33,0,0,1-.82-.54,5.39,5.39,0,0,0-2.48-.75,4.6,4.6,0,0,0-1.76.23c-.27.08-.56.31-.54.46s.28.31.64.35a17.1,17.1,0,0,0,2.31.16c.41,0,.82,0,1.23,0a2.18,2.18,0,0,0,1.07-.23c.19-.13.1-.6,0-1a11.75,11.75,0,0,0-.22-1.21,12.68,12.68,0,0,0-.74-2.18,1,1,0,0,0-.57-.67c-.23-.09-.43.05-.52.3-.15.49.24,1.11.46,1.59C355.75,340.46,356.65,341.57,356.56,341.63Z" style="fill:#263238"></path><polygon points="339.57 313.76 326.77 345.1 304.93 303.19 316.54 292.53 339.57 313.76" style="fill:#FF725E"></polygon><g style="opacity:0.30000000000000004"><polygon points="339.57 313.76 326.77 345.1 304.93 303.19 316.54 292.53 339.57 313.76"></polygon></g><path d="M219.21,208.52a2.81,2.81,0,0,0-1.75-2.45,5.38,5.38,0,0,0-3.13-.2,10.06,10.06,0,0,0-6.28,4,2.64,2.64,0,0,1-1,1,3.06,3.06,0,0,1-2-.29,6.06,6.06,0,0,0-6.07,1.79,8.64,8.64,0,0,0-2.12,6.15,5.13,5.13,0,0,1-.4,3.05c-.6.89-1.75,1.17-2.68,1.7a5.15,5.15,0,0,0-2.23,6A4.21,4.21,0,0,1,192,231a3.5,3.5,0,0,1-.77,1.57,7,7,0,0,0-1.3,3.95,4.61,4.61,0,0,0,1.79,3.66,3.45,3.45,0,0,0,3.95.11,5,5,0,0,0,4.48,2.58,11.18,11.18,0,0,0,5.19-1.43,2.47,2.47,0,0,0,.75,2.53,4.48,4.48,0,0,0,2.56,1,7.68,7.68,0,0,0,7.45-4c1.14-2.24,1.08-4.88,1.46-7.36.62-4.07,2.44-7.85,3.52-11.82s1.34-8.51-1-11.93" style="fill:#263238"></path><path d="M224.16,210.47a2.65,2.65,0,0,0-1.06-1.26,6.46,6.46,0,0,0-4.62-1,10.27,10.27,0,0,0-4.4,1.91,14.8,14.8,0,0,0-5.73,8.61,4.43,4.43,0,0,0,0,2.5,3.21,3.21,0,0,0,2.76,1.92,5.69,5.69,0,0,0,3.35-.94c4.17-2.54,5.78-7.94,9.71-10.83A1.51,1.51,0,0,0,224.16,210.47Z" style="fill:#FF725E"></path><path d="M224.26,211.33a.39.39,0,0,1-.1.08.61.61,0,0,1,0,.12Z" style="fill:#FF725E"></path><path d="M224.11,211.53l-.34.46A1.11,1.11,0,0,0,224.11,211.53Z" style="fill:#FF725E"></path><path d="M256,223.51a3.86,3.86,0,0,0-3.36-2.56A5.09,5.09,0,0,0,247,214.1a4.67,4.67,0,0,0-7.24-4.59,6.73,6.73,0,0,0-10.05-.36,6.32,6.32,0,0,0-8.66,2.66c-1.9-1.78-5.22-1.14-6.94.8s-2.14,4.74-1.93,7.33a4.29,4.29,0,0,0-.64,7.44,7.38,7.38,0,0,0,1.35,10.18,8.49,8.49,0,0,0,4.17,8.47l33.66-5.61a4.46,4.46,0,0,0,3-5.13,5.35,5.35,0,0,0,1.14-7.71A3.88,3.88,0,0,0,256,223.51Z" style="fill:#263238"></path><path d="M220.07,225.43,219,222.34l19.17-3.07c5.9-.45,12.08,5.63,12.28,11.54.22,6.57.23,14.59-.69,19.46-1.86,9.78-9.43,10.81-9.43,10.81l-.59,15.44-21.67-.86Z" style="fill:#ffbe9d"></path><path d="M246.66,237.12a1.27,1.27,0,0,1-1.26,1.24,1.2,1.2,0,0,1-1.26-1.17,1.25,1.25,0,0,1,1.25-1.24A1.21,1.21,0,0,1,246.66,237.12Z" style="fill:#263238"></path><path d="M248.23,234.93c-.16.16-1.09-.58-2.45-.61s-2.37.61-2.51.44.1-.37.54-.67a3.47,3.47,0,0,1,2-.56,3.33,3.33,0,0,1,1.94.69C248.18,234.55,248.31,234.86,248.23,234.93Z" style="fill:#263238"></path><path d="M233.37,237.12a1.27,1.27,0,0,1-1.25,1.24,1.21,1.21,0,0,1-1.27-1.18A1.25,1.25,0,0,1,232.1,236,1.21,1.21,0,0,1,233.37,237.12Z" style="fill:#263238"></path><path d="M234.59,234.76c-.16.16-1.1-.58-2.45-.61s-2.38.61-2.52.44.1-.37.54-.67a3.49,3.49,0,0,1,2-.56,3.33,3.33,0,0,1,1.95.69C234.53,234.39,234.67,234.69,234.59,234.76Z" style="fill:#263238"></path><path d="M239.52,245a9.77,9.77,0,0,1,2.21-.33c.35,0,.68-.08.75-.32a1.81,1.81,0,0,0-.21-1l-.94-2.67a46.41,46.41,0,0,1-2.1-7,46.14,46.14,0,0,1,2.65,6.79c.32.93.62,1.82.91,2.68a2,2,0,0,1,.14,1.36.85.85,0,0,1-.59.49,2.68,2.68,0,0,1-.59.07A8.56,8.56,0,0,1,239.52,245Z" style="fill:#263238"></path><path d="M240.32,261.11a26.05,26.05,0,0,1-13.4-3.93s3.12,7,13.32,6.38Z" style="fill:#eb996e"></path><path d="M234.12,227.63c-.08.39-1.44.43-3,.88s-2.75,1.08-3,.78c-.12-.14.05-.52.5-.95a3.21,3.21,0,0,1,2.14-1.16,5.1,5.1,0,0,1,2.42-.11C233.81,227.21,234.15,227.45,234.12,227.63Z" style="fill:#263238"></path><path d="M248.2,230.65c-.26.29-1.17-.1-2.29-.2s-2.09,0-2.28-.29c-.08-.17.09-.46.53-.72a3.32,3.32,0,0,1,3.68.4C248.21,230.18,248.32,230.51,248.2,230.65Z" style="fill:#263238"></path><path d="M229.88,219.12a4.88,4.88,0,0,0,1.15,2.12,1.67,1.67,0,0,0,2.21.13,2.19,2.19,0,0,0,3.39-.24,3,3,0,0,0,3.6.36l2.93.64c1.06.23,2.38.37,3-.5.15-.2.27-.45.49-.56a1.47,1.47,0,0,1,.75,0,2.53,2.53,0,0,0,2.2-1,7.64,7.64,0,0,0,1.1-2.28c.43-1.24.76-2.83-.24-3.66a3.28,3.28,0,0,0-1.41-.55,7.38,7.38,0,0,0-3.09-.24,5.47,5.47,0,0,0-3.06,2.21,1.36,1.36,0,0,0-.84-1.69A2.67,2.67,0,0,0,240,214a5.45,5.45,0,0,0-2.3,1.95,4.45,4.45,0,0,0-4,2.43,3.21,3.21,0,0,0-2.52-.45,1.17,1.17,0,0,0-.77.48.52.52,0,0,0,.27.75" style="fill:#263238"></path><path d="M239.37,219.7a3.25,3.25,0,0,0,5,3.79,3,3,0,0,0,3.36,1.93,4.71,4.71,0,0,0,2.41,4.13,3.6,3.6,0,0,0-.07,2.68,2.21,2.21,0,0,0,1.11,1.32,2.6,2.6,0,0,0,2-.14,3.65,3.65,0,0,0,2.07-2,2.08,2.08,0,0,0-.93-2.54,8,8,0,0,0,2-2.82,2.53,2.53,0,0,0,.16-1.92,1.1,1.1,0,0,0-1.61-.53,2.89,2.89,0,0,0-3.07-4.22,2.41,2.41,0,0,0-4-1.77" style="fill:#263238"></path><path d="M227.61,218.6a2.47,2.47,0,0,0-2.23-2.37,6.09,6.09,0,0,0-3.43.83,4.2,4.2,0,0,0-4.66-1.19c-1.58.63-2.6,2.15-3.91,3.25a8.48,8.48,0,0,0-2,1.84,1.78,1.78,0,0,0,.31,2.42,3.05,3.05,0,0,0-.88,5.3c.28.22.61.41.73.74a1.35,1.35,0,0,1-.09.86A31.43,31.43,0,0,0,210,234.2a3.6,3.6,0,0,0,1.18,3.76c.31.21.69.37.83.71a1.15,1.15,0,0,1,0,.71,12.83,12.83,0,0,1-1,2.17,3.31,3.31,0,0,0-.36,2.31,1.51,1.51,0,0,0,1.82,1.1,4.91,4.91,0,0,0,.49,4.56c1,1.26,4.21,1.82,6.12.66l.18-4.5c-.25-.8,1-5,.47-5.88,0,0-1.35,2.93,1.69,2.44,1,.27,2.89-2.63,3-3.65a2.73,2.73,0,0,0-1.39-2.55,4.61,4.61,0,0,0,1.19-5.8,2.47,2.47,0,0,0,.48-4.76,5.07,5.07,0,0,0,3.25-6.82" style="fill:#263238"></path><path d="M220.8,237.63c-.14-.07-5.55-2.27-6,3.44s5.41,4.93,5.44,4.77S220.8,237.63,220.8,237.63Z" style="fill:#ffbe9d"></path><path d="M218.69,243.55s-.1.07-.28.13a1,1,0,0,1-.74,0,2.49,2.49,0,0,1-1-2.29,3.5,3.5,0,0,1,.38-1.41,1.18,1.18,0,0,1,.8-.71.51.51,0,0,1,.57.31c.07.17,0,.28,0,.29s.13-.08.1-.32a.59.59,0,0,0-.2-.38.74.74,0,0,0-.54-.18,1.42,1.42,0,0,0-1.1.81,3.32,3.32,0,0,0-.45,1.57,2.6,2.6,0,0,0,1.27,2.57,1.11,1.11,0,0,0,.93-.09C218.67,243.69,218.71,243.57,218.69,243.55Z" style="fill:#eb996e"></path><path d="M235.6,246.88a2,2,0,0,1,3.17.63,1.85,1.85,0,0,1,0,1.51,1.76,1.76,0,0,1-1.77,1,1.78,1.78,0,0,1-1.49-1.39c-.13-.71-.36-1.56.28-1.9" style="fill:#eb996e"></path><path d="M239.84,248.78c0,.06-.33.2-.91.22a4.24,4.24,0,0,1-2.18-.59,3.92,3.92,0,0,1-2-2.38c.14-.1.87,1.11,2.29,1.93A9,9,0,0,0,239.84,248.78Z" style="fill:#263238"></path><path d="M213.89,245a1,1,0,0,1-.5-.1,3.59,3.59,0,0,1-1.23-.75,3.8,3.8,0,0,1-1.11-2,3.9,3.9,0,0,1,.55-2.9l.1.33a4.07,4.07,0,0,1-2.1-5.87l.11.37a4.25,4.25,0,0,1-1.28-1,4.21,4.21,0,0,1-1-4,4.29,4.29,0,0,1,2.39-2.76l-.11.3a5,5,0,0,1-.38-3.16,5.4,5.4,0,0,1,1-2.24,4.47,4.47,0,0,1,1.15-1.07c.31-.19.49-.26.5-.24a7,7,0,0,0-1.43,1.46,5.29,5.29,0,0,0-.84,2.15,4.79,4.79,0,0,0,.42,2.9l.11.21-.22.1a3.9,3.9,0,0,0-2.09,2.49,3.75,3.75,0,0,0,.86,3.48,3.87,3.87,0,0,0,1.11.85l.25.13L210,234a3.72,3.72,0,0,0-.23,3.18,3.69,3.69,0,0,0,2.05,2l.25.1-.15.23a3.61,3.61,0,0,0-.56,2.59,3.57,3.57,0,0,0,.94,1.85A5.42,5.42,0,0,0,213.89,245Z" style="fill:#455a64"></path><path d="M192.09,217.12a2,2,0,0,1-.3-.64,4.43,4.43,0,0,1-.17-2,4.55,4.55,0,0,1,1.49-2.8,4.82,4.82,0,0,1,4-1.1l-.24.26a5,5,0,0,1,2.8-5.62,8.9,8.9,0,0,1,3.6-.95,6.11,6.11,0,0,1,3.83.92,4,4,0,0,1,1.5,2.08,2.71,2.71,0,0,1-2.57,3.58,2.09,2.09,0,0,1-1.9-1.37,2.86,2.86,0,0,1,.09-2.21,3.18,3.18,0,0,1,1.46-1.48,5.56,5.56,0,0,1,3.58-.42,7.06,7.06,0,0,1,4.3,2.78,5.47,5.47,0,0,1,.68,1.23,1.49,1.49,0,0,1,.14.47,11.12,11.12,0,0,0-1-1.58,7,7,0,0,0-4.2-2.54,5.27,5.27,0,0,0-3.32.44,2.82,2.82,0,0,0-1.25,1.28,2.54,2.54,0,0,0-.05,1.86,1.58,1.58,0,0,0,1.46,1,2.23,2.23,0,0,0,1.76-.9,2.26,2.26,0,0,0,.31-2,3.52,3.52,0,0,0-1.31-1.8,5.49,5.49,0,0,0-3.51-.83,8.45,8.45,0,0,0-3.39.87,4.56,4.56,0,0,0-2.63,5.06l.1.34L197,211a4.52,4.52,0,0,0-3.69.95,4.28,4.28,0,0,0-1.47,2.58A5.39,5.39,0,0,0,192.09,217.12Z" style="fill:#263238"></path><path d="M241.11,213.76a3.73,3.73,0,0,0,1.2-.25,3,3,0,0,0,1.71-2.58,5.23,5.23,0,0,0-1.94-4.27,5.82,5.82,0,0,0-5.57-1.16,3.33,3.33,0,0,0-1.8,1.36,2.23,2.23,0,0,0-.19,2l-.44.24a4.86,4.86,0,0,0-3.52-2.15,4.69,4.69,0,0,0-3.2.86,5.35,5.35,0,0,0-1.51,1.66c-.26.46-.35.74-.38.73a1.85,1.85,0,0,1,.24-.81,5,5,0,0,1,4.89-2.86,5.25,5.25,0,0,1,3.9,2.3l-.44.23a2.71,2.71,0,0,1,.21-2.47,3.85,3.85,0,0,1,2.07-1.6,6.25,6.25,0,0,1,6,1.3,5.53,5.53,0,0,1,2,4.66,3.42,3.42,0,0,1-.77,1.87,3,3,0,0,1-1.24.87,2.27,2.27,0,0,1-.94.14C241.22,213.82,241.11,213.78,241.11,213.76Z" style="fill:#263238"></path><path d="M223.29,234.33a2.39,2.39,0,0,1-.94-.31,7.14,7.14,0,0,1-2.19-1.57,7.55,7.55,0,0,1-1.94-3.51,7.94,7.94,0,0,1,.39-4.89l0-.07.14.35a9.17,9.17,0,0,1-3.85-3,9.63,9.63,0,0,1-1.69-3.6,8.29,8.29,0,0,1-.19-2.67,2.71,2.71,0,0,1,.2-1,13.46,13.46,0,0,0,.35,3.53,9.57,9.57,0,0,0,1.71,3.41,8.84,8.84,0,0,0,3.66,2.8l.24.1-.1.25,0,.06a7.71,7.71,0,0,0-.4,4.58,7.43,7.43,0,0,0,1.74,3.37A11,11,0,0,0,223.29,234.33Z" style="fill:#455a64"></path><path d="M210.19,213.51c0,.05-.45,0-1.26,0a7.84,7.84,0,0,0-3.28.86,7.06,7.06,0,0,0-3.37,3.67,7.42,7.42,0,0,0,.28,6.11l.24.47-.52-.09a4.93,4.93,0,0,0-2.64.28,4.79,4.79,0,0,0-2.93,3.2,5.05,5.05,0,0,0,.52,3.94l.19.32-.37,0a3.39,3.39,0,0,0-2.77,2.49,5.17,5.17,0,0,0,.12,3.1,21.19,21.19,0,0,0,1.21,2.55,2.82,2.82,0,0,1-.47-.59,8.14,8.14,0,0,1-1-1.87,5.38,5.38,0,0,1-.24-3.3,4.61,4.61,0,0,1,1-1.81,3.29,3.29,0,0,1,2.07-1l-.17.35a5.51,5.51,0,0,1-.62-4.32,5.28,5.28,0,0,1,3.23-3.56,5.48,5.48,0,0,1,2.93-.3l-.28.37a7.82,7.82,0,0,1-.24-6.52,7.28,7.28,0,0,1,3.64-3.8,7.46,7.46,0,0,1,3.43-.75,5.65,5.65,0,0,1,.95.11A.9.9,0,0,1,210.19,213.51Z" style="fill:#455a64"></path><polyline points="335.76 360.89 323.47 312.4 306.89 330.79 319.67 363.26" style="fill:#ffbe9d"></polyline><path d="M331.61,344.51,337.83,363s20.48-.25,21.95,3l-34.65,13.59-10.84-28.37Z" style="fill:#455a64"></path><path d="M326.54,365.65a1.56,1.56,0,0,0-.36,2,1.44,1.44,0,0,0,2,.38,1.65,1.65,0,0,0,.37-2.15,1.49,1.49,0,0,0-2.09-.17" style="fill:#e0e0e0"></path><g style="opacity:0.6000000000000001"><path d="M325.13,379.62l-1-2.9,33.59-12s1.8.08,2,1.26Z" style="fill:#fff"></path></g><path d="M338.32,362.58c.06.17-.75.58-1.38,1.46s-.79,1.79-1,1.78-.31-1.11.47-2.16S338.3,362.4,338.32,362.58Z" style="fill:#263238"></path><path d="M342.54,362.69c.1.15-.53.73-.83,1.68s-.17,1.8-.34,1.86-.65-.88-.25-2.06S342.47,362.52,342.54,362.69Z" style="fill:#263238"></path><path d="M346.27,366.31c-.14.1-.7-.67-.62-1.78s.73-1.81.85-1.69-.17.81-.22,1.73S346.43,366.23,346.27,366.31Z" style="fill:#263238"></path><path d="M336.45,358.53c0,.18-.88.25-1.81.69s-1.56,1-1.71.93.35-1,1.45-1.52S336.48,358.36,336.45,358.53Z" style="fill:#263238"></path><path d="M334.82,353c0,.15-.86.15-1.76.59s-1.46,1.07-1.58,1,.3-.95,1.36-1.45S334.86,352.84,334.82,353Z" style="fill:#263238"></path><path d="M334.1,352.74a4.07,4.07,0,0,1-.29-1,18.51,18.51,0,0,1-.43-2.82c0-.3,0-.62,0-.95a1.72,1.72,0,0,1,.32-1.09,1.06,1.06,0,0,1,.57-.36.82.82,0,0,1,.71.19,1.55,1.55,0,0,1,.43,1.24,12.94,12.94,0,0,1-.25,2.51,12.31,12.31,0,0,1-.32,1.3c-.07.22-.14.43-.22.65a1.1,1.1,0,0,1-.55.67,2.06,2.06,0,0,1-1.5-.23,12,12,0,0,1-1.21-.54,15.7,15.7,0,0,1-2.17-1.28,2,2,0,0,1-.49-.44.78.78,0,0,1-.14-.75.8.8,0,0,1,.57-.47,1.63,1.63,0,0,1,.62,0,5.17,5.17,0,0,1,1.9.69,5.36,5.36,0,0,1,2,2.08,2.28,2.28,0,0,1,.34,1s-.17-.33-.52-.89a5.56,5.56,0,0,0-2-1.86,4.86,4.86,0,0,0-1.77-.58c-.3,0-.67,0-.71.22s.16.44.47.64a17.24,17.24,0,0,0,2.12,1.21c.38.19.78.36,1.18.52s.86.35,1.1.23.35-.59.48-1a11.47,11.47,0,0,0,.32-1.25,12.8,12.8,0,0,0,.27-2.41,1.08,1.08,0,0,0-.25-.89.44.44,0,0,0-.65.1c-.34.43-.24,1.18-.25,1.75C333.86,351.27,334.2,352.73,334.1,352.74Z" style="fill:#263238"></path><path d="M256.77,291.3s6.29,10,4.64,17c-.13.39-3.37,7.7-3.71,9.37s.91,4.74.91,4.74l7.29-.53L295,292.2s6.29-5.85,10.33-6.3,13,6.27,15,12.87l2,6.61s1-1.5,1.65-.75,3.56,9.89,2.75,12.43-7.85,22.32-17.73,22.17L302,332.64l1.79-1.94-.6-2.4s-9,21.57-16,28-20.38,18.43-31.61,18.58-25.81-6.74-28.86-13.78S218.42,335,218.42,335c.17,0-11.76-58.25.26-65.2,13.06-7.54,25.16-.2,28.17,2.76S256.77,291.3,256.77,291.3Z" style="fill:#FF725E"></path><path d="M259.39,311.66a2.7,2.7,0,0,1-.39.76,14.47,14.47,0,0,1-1.35,1.89,20.43,20.43,0,0,1-2.42,2.45,30,30,0,0,1-3.43,2.45,52.09,52.09,0,0,1-6.85,3.34,17.62,17.62,0,0,1-3,1.09,20.18,20.18,0,0,1,2.81-1.42c1.75-.84,4.2-2,6.73-3.46a31.37,31.37,0,0,0,3.39-2.37,22.46,22.46,0,0,0,2.45-2.33C258.66,312.63,259.31,311.61,259.39,311.66Z" style="fill:#263238"></path><path d="M244.12,272a14.24,14.24,0,0,0-11.92-4.09c-4.32.59-10.34,2.67-12.45,6.49-2.35,4.27-2.46,10.57-2.37,15.45.2,11.8,2.6,23.06,2.81,34.85,0,1.39.16,3,1.31,3.76a4.09,4.09,0,0,0,3.21.2,35.05,35.05,0,0,0,18.1-57.83" style="fill:#ebebeb"></path><path d="M265.9,321.86c.06.09-1.44,1-3.58,2.78a61.9,61.9,0,0,0-7.43,8c-1.36,1.66-2.68,3.23-3.95,4.6a33.66,33.66,0,0,1-3.63,3.38,17.91,17.91,0,0,1-1.54,1.13,11.3,11.3,0,0,1-1.23.76,5.4,5.4,0,0,1-1.09.56c-.06-.1,1.48-.93,3.62-2.73a39.12,39.12,0,0,0,3.52-3.42c1.24-1.38,2.53-2.95,3.89-4.61a52.38,52.38,0,0,1,7.61-8,24.14,24.14,0,0,1,2.73-1.92A5.12,5.12,0,0,1,265.9,321.86Z" style="fill:#263238"></path><path d="M305.47,304.65a4.19,4.19,0,0,1,.37.92,20.23,20.23,0,0,1,.7,2.59,29.13,29.13,0,0,1-1.8,17.42,18.64,18.64,0,0,1-1.21,2.4,3.88,3.88,0,0,1-.55.82c-.08-.05.6-1.27,1.42-3.36a32.9,32.9,0,0,0,2.07-8.49,33.23,33.23,0,0,0-.29-8.72C305.8,306,305.38,304.68,305.47,304.65Z" style="fill:#263238"></path><path d="M322.23,305.38a5.92,5.92,0,0,1-.43,1.17c-.3.74-.77,1.8-1.39,3.09a65.81,65.81,0,0,1-5.66,9.67,54.88,54.88,0,0,1-7.37,8.43c-1.06,1-1.93,1.73-2.57,2.22a6.27,6.27,0,0,1-1,.74,5.4,5.4,0,0,1,.88-.89c.59-.54,1.42-1.34,2.45-2.33a67,67,0,0,0,7.2-8.47,79.59,79.59,0,0,0,5.75-9.53l1.54-3A5.44,5.44,0,0,1,322.23,305.38Z" style="fill:#263238"></path><path d="M258.61,322.39a3.36,3.36,0,0,1-.8.55c-.53.32-1.31.77-2.29,1.31-1.94,1.08-4.65,2.52-7.67,4.07l-7.74,3.94a28.11,28.11,0,0,1-3.26,1.54s.27-.23.8-.55,1.31-.77,2.28-1.32c1.95-1.08,4.66-2.52,7.68-4.07l7.74-3.93A27.22,27.22,0,0,1,258.61,322.39Z" style="fill:#263238"></path><g style="opacity:0.30000000000000004"><path d="M258.5,322.31c-7,3.13-12.84,7.45-19.54,11.8a2.8,2.8,0,0,0-1,1.08,1.13,1.13,0,0,0,.21,1.36c.51.39,1.23.1,1.78-.2,6.89-3.7,13.83-8.51,18.66-14"></path></g><path d="M226,335.37c-.14,0-.39-.48-.57-1.15s-.19-1.24-.05-1.28.39.48.56,1.15S226.14,335.33,226,335.37Z" style="fill:#263238"></path><path d="M229,344.74A6,6,0,0,1,228,342.5a6.32,6.32,0,0,1-.56-2.41,6,6,0,0,1,1.06,2.24A6.25,6.25,0,0,1,229,344.74Z" style="fill:#263238"></path><path d="M232.88,353.78a6.27,6.27,0,0,1-1.26-2.13,5.91,5.91,0,0,1-.78-2.35,6.34,6.34,0,0,1,1.26,2.13A6,6,0,0,1,232.88,353.78Z" style="fill:#263238"></path><path d="M238,362.18c-.1.1-.93-.67-1.7-1.81a5.08,5.08,0,0,1-1.09-2.23c.13-.07.76.83,1.52,1.94A8.14,8.14,0,0,1,238,362.18Z" style="fill:#263238"></path><path d="M246.21,367.24a4.63,4.63,0,0,1-2.43-.53c-1.29-.52-2.18-1.22-2.1-1.34a10.09,10.09,0,0,1,2.3.86A9,9,0,0,1,246.21,367.24Z" style="fill:#263238"></path><path d="M256,367.74a6.13,6.13,0,0,1-2.44.43,5,5,0,0,1-2.47-.23,7.55,7.55,0,0,1,2.45-.29A6.18,6.18,0,0,1,256,367.74Z" style="fill:#263238"></path><path d="M265.47,365.22a5.25,5.25,0,0,1-2.21,1.11,5.14,5.14,0,0,1-2.44.47,7.18,7.18,0,0,1,2.27-1A7.27,7.27,0,0,1,265.47,365.22Z" style="fill:#263238"></path><path d="M274.07,360.46c.08.12-.79.81-1.95,1.53a5.88,5.88,0,0,1-2.22,1.09c-.07-.12.8-.81,2-1.53A6.36,6.36,0,0,1,274.07,360.46Z" style="fill:#263238"></path><path d="M281.51,354.05c.11.1-.61.94-1.6,1.88s-1.88,1.61-2,1.5.63-.95,1.61-1.88S281.41,354,281.51,354.05Z" style="fill:#263238"></path><path d="M287.85,346.52a6.14,6.14,0,0,1-1.32,2.1c-.84,1.07-1.61,1.87-1.72,1.77a6.12,6.12,0,0,1,1.31-2.09C287,347.23,287.73,346.44,287.85,346.52Z" style="fill:#263238"></path><path d="M293.28,338.32c.13.08-.36,1.07-1.09,2.22s-1.41,2-1.53,1.95a6,6,0,0,1,1.09-2.22C292.48,339.12,293.16,338.25,293.28,338.32Z" style="fill:#263238"></path><path d="M298.14,329.77a6.43,6.43,0,0,1-1,2.28c-.66,1.19-1.29,2.09-1.42,2a6.28,6.28,0,0,1,1-2.28C297.38,330.61,298,329.7,298.14,329.77Z" style="fill:#263238"></path><path d="M302.78,321.09a6,6,0,0,1-.93,2.29c-.64,1.2-1.26,2.12-1.39,2.05a11.8,11.8,0,0,1,2.32-4.34Z" style="fill:#263238"></path><path d="M306.38,314.6c.13.08-.05.62-.39,1.22s-.72,1-.84,1,.05-.62.39-1.22S306.26,314.53,306.38,314.6Z" style="fill:#263238"></path><path d="M308.9,314.08c0,.15-.58.14-1.2.25s-1.11.33-1.2.21.35-.59,1.11-.72S308.93,314,308.9,314.08Z" style="fill:#263238"></path><path d="M313.79,319.71c-.13.05-.46-.42-.72-1s-.38-1.19-.25-1.25.45.4.73,1S313.93,319.66,313.79,319.71Z" style="fill:#263238"></path><path d="M309.49,328.6c-.14,0-.37-.51-.43-1.22s.09-1.28.23-1.27.23.56.29,1.23S309.63,328.57,309.49,328.6Z" style="fill:#263238"></path><path d="M314.7,336.37c-.08.13-.63-.08-1.18-.53s-.86-.94-.76-1,.57.22,1.09.64S314.77,336.25,314.7,336.37Z" style="fill:#263238"></path><path d="M244.77,295.7s-20.28,36-27.39,39.89l1.3,6.41s17.13-16.83,22.49-25.25,9.52-20.57,9.52-20.57Z" style="fill:#455a64"></path><path d="M216.68,261.87c-.5,4,.31,5.83-.55,10.16,9.08-3.78,18.68-3.26,28,0l1.53.32C244.16,263.88,225.69,261,216.68,261.87Z" style="fill:#455a64"></path><path d="M245.1,270.66a16.72,16.72,0,0,0-3-3.1,25,25,0,0,0-9.57-4.05,63.37,63.37,0,0,0-10.43-1.34c-2.7-.16-4.37-.15-4.37-.24a4.65,4.65,0,0,1,1.17-.1c.76,0,1.86-.06,3.21,0A53.15,53.15,0,0,1,232.63,263a23.56,23.56,0,0,1,9.68,4.26,15.61,15.61,0,0,1,1.35,1.26c.34.43.65.78.87,1.1A5.32,5.32,0,0,1,245.1,270.66Z" style="fill:#263238"></path><path d="M218.93,266.54c.27-5.87-1.85-8.29-3.59-9.2s-3.86-.6-5.74,0a25.11,25.11,0,0,0-15.5,13.63,19.75,19.75,0,0,1-2.35,4.57,17.62,17.62,0,0,1-4.35,3.34c-9.85,6.46-12.78,18.6-14.52,30.25s-2.73,22.92-.41,34.46c1.22,6,2.81,12.45,7.37,16.6,3.45,3.14,8.12,4.51,12.64,5.71,5.31,1.42,10.82,2.74,16.25,1.92s10.82-4.32,12.24-9.63c1-3.61,0-7.42-.86-11.06-6.78-28.42-5.89-51.73-1.18-80.56" style="fill:#455a64"></path><path d="M192.39,323.55l.36,0h1.05c.92,0,2.28,0,4,.08,3.49.09,8.52.46,14.71.53h.17l0,.17c.6,4.79,1.3,10.33,2.06,16.38.38,3,.77,6.18,1.18,9.44a27.14,27.14,0,0,1,.23,5,9.48,9.48,0,0,1-1.64,4.94,9.12,9.12,0,0,1-4.82,3.27,11.53,11.53,0,0,1-5.65.22,12.73,12.73,0,0,1-8.5-6.09,27.58,27.58,0,0,1-2.8-9.18c-.5-3-.8-5.75-1-8.29a81.9,81.9,0,0,1,.07-12.08c.11-1.42.24-2.52.34-3.27q.07-.51.12-.84a1.19,1.19,0,0,1,.06-.29,1,1,0,0,1,0,.3c0,.22,0,.5-.07.85-.06.74-.16,1.84-.24,3.26a87.62,87.62,0,0,0,.1,12c.2,2.53.52,5.3,1,8.25a27.29,27.29,0,0,0,2.78,9,12.23,12.23,0,0,0,8.19,5.84,11.12,11.12,0,0,0,5.4-.21,8.64,8.64,0,0,0,4.55-3.09,9,9,0,0,0,1.54-4.67,26.26,26.26,0,0,0-.22-4.94c-.4-3.26-.78-6.42-1.15-9.45-.73-6.05-1.4-11.58-2-16.38l.19.18c-6.2-.12-11.22-.55-14.71-.71l-4-.19-1,0A1.26,1.26,0,0,1,192.39,323.55Z" style="fill:#263238"></path><path d="M184.08,282.17A10.46,10.46,0,0,1,176.8,264c3.28-3,8-3.59,12.13-5.26,3.65-1.48,6.86-3.84,10.27-5.79s7.24-3.56,11.16-3.27,7.9,2.93,8.59,6.81a5.23,5.23,0,0,1-.46,3.44,7.33,7.33,0,0,1-2.51,2.44c-5.52,3.76-12.07,5.82-17.5,9.73-4.84,3.49-9,8.51-14.78,9.81" style="fill:#455a64"></path><path d="M217.71,261.93a18.53,18.53,0,0,0-5.83.91,23.09,23.09,0,0,0-5.67,3,48,48,0,0,0-6,5.07c-2,2-3.89,3.87-5.73,5.5a33.46,33.46,0,0,1-5.2,3.9,18.87,18.87,0,0,1-4,1.84c-.49.17-.89.24-1.15.31a1.79,1.79,0,0,1-.42.07,28.19,28.19,0,0,0,5.36-2.53,35.47,35.47,0,0,0,5.07-3.95c1.8-1.63,3.68-3.54,5.69-5.51a45.43,45.43,0,0,1,6.12-5.1,22.38,22.38,0,0,1,5.83-2.9,14.23,14.23,0,0,1,4.33-.7,8.47,8.47,0,0,1,1.19.07A1.28,1.28,0,0,1,217.71,261.93Z" style="fill:#263238"></path><path d="M205.75,324a2.66,2.66,0,0,1,0-.62c0-.45.09-1,.16-1.75.15-1.52.4-3.72.73-6.43.64-5.43,1.66-12.91,2.58-21.19s1.4-15.82,1.49-21.28c.05-2.72.05-4.93,0-6.46,0-.72,0-1.3,0-1.76a2.59,2.59,0,0,1,0-.62,2.74,2.74,0,0,1,.07.62c0,.45.07,1,.12,1.75.1,1.53.16,3.74.16,6.48a203.25,203.25,0,0,1-1.34,21.32c-.92,8.3-2,15.77-2.74,21.18l-.89,6.41c-.1.72-.19,1.29-.26,1.75A2.59,2.59,0,0,1,205.75,324Z" style="fill:#263238"></path><path d="M226.15,269.54a50.35,50.35,0,0,0-8,1.81,24.7,24.7,0,0,0-5.17,2.51c-1.23.8-1.92,1.41-2,1.35a6.72,6.72,0,0,1,1.77-1.65,19.88,19.88,0,0,1,5.21-2.7,24.82,24.82,0,0,1,5.71-1.29A8.51,8.51,0,0,1,226.15,269.54Z" style="fill:#263238"></path><path d="M184,273.54a9.39,9.39,0,0,0,1.88,12.35c-1.17.77-2.58,1.56-3.88,1.06a3.65,3.65,0,0,1-1.41-1.15,10.54,10.54,0,0,1-.59-12.23Z" style="fill:#263238"></path><path d="M208.76,301.38a8.31,8.31,0,0,1-1.25.72c-.82.44-2,1-3.57,1.66a54.52,54.52,0,0,1-5.52,1.95,60.88,60.88,0,0,1-7,1.58,61.72,61.72,0,0,1-7.14.69,56.29,56.29,0,0,1-5.85-.13c-1.66-.13-3-.29-3.91-.46a8.13,8.13,0,0,1-1.42-.29,7.37,7.37,0,0,1,1.44.09c.92.1,2.26.21,3.91.29s3.63.1,5.81,0a61.53,61.53,0,0,0,14-2.25c2.1-.6,4-1.23,5.51-1.83s2.78-1.12,3.62-1.5A8.05,8.05,0,0,1,208.76,301.38Z" style="fill:#263238"></path><path d="M198.54,367.32a10.3,10.3,0,0,1,1.38-.15,10.8,10.8,0,0,0,3.14-1,12,12,0,0,0,2.77-1.77c.64-.55,1-1,1-.93s-.17.54-.77,1.2a9.49,9.49,0,0,1-2.81,2,8.77,8.77,0,0,1-3.33.85C199.05,367.57,198.52,367.38,198.54,367.32Z" style="fill:#263238"></path><path d="M191.25,337.71a93.36,93.36,0,0,1-9.89.09,96,96,0,0,1-9.89-.42,91.76,91.76,0,0,1,9.9-.1A93.91,93.91,0,0,1,191.25,337.71Z" style="fill:#263238"></path><path d="M186.53,337.55a1.66,1.66,0,0,0,.17,1.28,15.28,15.28,0,0,1,.82,1.33,1.53,1.53,0,0,1,.08,1.06,1.05,1.05,0,0,1-.92.8,1.09,1.09,0,0,1-1-.67,1.47,1.47,0,0,1-.1-1.06,9,9,0,0,1,.63-1.44,2.18,2.18,0,0,0,.15-1.32s.15.08.24.33a1.85,1.85,0,0,1,0,1.11c-.13.45-.41.91-.51,1.42a1,1,0,0,0,.08.73.65.65,0,0,0,.53.38c.43,0,.63-.74.42-1.16s-.54-.91-.72-1.35a1.61,1.61,0,0,1-.09-1.12C186.37,337.61,186.5,337.53,186.53,337.55Z" style="fill:#263238"></path><path d="M192.46,327.29c0,.14-4.75.32-10.61.4s-10.62,0-10.62-.13,4.75-.32,10.61-.39S192.46,327.15,192.46,327.29Z" style="fill:#263238"></path><path d="M213.28,269.77c.06.13-.4.47-1,.76s-1.18.42-1.24.3.39-.47,1-.77S213.23,269.63,213.28,269.77Z" style="fill:#fff"></path><path d="M223.1,267.25a19.9,19.9,0,0,1-5,.9,5.39,5.39,0,0,1,2.43-.8A5.56,5.56,0,0,1,223.1,267.25Z" style="fill:#fff"></path><path d="M233.23,267.62a7.39,7.39,0,0,1-2.54-.1,7.69,7.69,0,0,1-2.51-.45,5.46,5.46,0,0,1,2.56-.07A5.64,5.64,0,0,1,233.23,267.62Z" style="fill:#fff"></path><path d="M240.48,269.81c-.06.13-.62,0-1.26-.21s-1.12-.55-1.07-.69.61,0,1.26.21S240.54,269.68,240.48,269.81Z" style="fill:#fff"></path><path d="M208.6,321.47c.14,0,.16.59.05,1.27s-.32,1.22-.46,1.19-.17-.59-.05-1.27S208.46,321.44,208.6,321.47Z" style="fill:#fff"></path><path d="M210.08,311.63a6.17,6.17,0,0,1-.1,2.5,5.89,5.89,0,0,1-.61,2.42,6.17,6.17,0,0,1,.1-2.5A6,6,0,0,1,210.08,311.63Z" style="fill:#fff"></path><path d="M211.27,301.75a5.91,5.91,0,0,1,0,2.5,6.4,6.4,0,0,1-.54,2.45,12,12,0,0,1,.56-4.95Z" style="fill:#fff"></path><path d="M212.19,291.85a6.35,6.35,0,0,1,.05,2.5,5.91,5.91,0,0,1-.48,2.45,6.25,6.25,0,0,1,0-2.5A5.92,5.92,0,0,1,212.19,291.85Z" style="fill:#fff"></path><path d="M212.82,281.92a6.21,6.21,0,0,1,.12,2.5,6.3,6.3,0,0,1-.4,2.47,6.21,6.21,0,0,1-.12-2.5A6.3,6.3,0,0,1,212.82,281.92Z" style="fill:#fff"></path><path d="M213.11,274.45c.14,0,.24.57.22,1.26s-.15,1.25-.3,1.24-.24-.57-.22-1.26S213,274.45,213.11,274.45Z" style="fill:#fff"></path><path d="M219,257.76a16.74,16.74,0,0,0-5.89-.41,20.33,20.33,0,0,0-6.13,1.8,37.25,37.25,0,0,0-6.68,4.17C198,265,196,266.73,194,268.19a39.81,39.81,0,0,1-5.48,3.52,22.58,22.58,0,0,1-4.08,1.65c-.5.13-.89.23-1.16.27a1.21,1.21,0,0,1-.42.05,14.33,14.33,0,0,1,1.52-.51,26.82,26.82,0,0,0,4-1.78,44.15,44.15,0,0,0,5.37-3.58c1.94-1.47,4-3.2,6.26-4.91a35.89,35.89,0,0,1,6.79-4.19A19.85,19.85,0,0,1,213,257a13.88,13.88,0,0,1,4.4.26,8.54,8.54,0,0,1,1.14.35A1.2,1.2,0,0,1,219,257.76Z" style="fill:#263238"></path><path d="M191.76,330.63c0,.14-4.59.26-10.26.26s-10.27-.12-10.27-.26a99.46,99.46,0,0,1,10.27-.26A99.18,99.18,0,0,1,191.76,330.63Z" style="fill:#263238"></path><path d="M327.53,277.26a10.47,10.47,0,0,1,5,.68c2.21,1.05,9.19,6.84,9.68,7.25A10.74,10.74,0,0,1,344,289c.12.92,2.08,5.88,1.65,6.68s-3.12,5.88-3.12,5.88-1.35-.12-1.6-.73l-1.71,2.38s-1.53-1.71-1.23-3.24a12.68,12.68,0,0,1,1.78-3.62v-2.63l-4.41-3.25a2.65,2.65,0,0,1-.06,2.45c-.74,1.17-1.41,2.33-2.09,1.11s-.12-2-1.53-3.81-1.77-3.79-2.45-3.91a21.38,21.38,0,0,0-2.56-.12Z" style="fill:#ffbe9d"></path><path d="M232.87,293.19c-10.67-5.61-6.61-21.58,5.45-21.58a43.37,43.37,0,0,1,14.71,2.8c17.47,6.3,32.33,9.54,35.77,8.82a195.27,195.27,0,0,1,19.5-3.78c12.16-1.79,19.89-2.7,19.9-1.94l-1.57,8.65s-25.34,12.31-29.5,12.6-59.28-3-61.29-4.16C235.35,294.33,234.23,293.9,232.87,293.19Z" style="fill:#ffbe9d"></path><path d="M241.47,296.93h13.21l5.65-23.13s-18.9-5.68-29.8-3.54c-10.11,2-6.86,17.69-6.86,17.69l2.52,2.56A21.37,21.37,0,0,0,241.47,296.93Z" style="fill:#ebebeb"></path><path d="M223.23,283.23a14.67,14.67,0,0,1,.22,1.5,16,16,0,0,0,1,3.93,9.88,9.88,0,0,0,3.69,4.57,19.55,19.55,0,0,0,6.9,2.49,68.78,68.78,0,0,0,13.47.95c1.74,0,3.15,0,4.12,0a7.12,7.12,0,0,1,1.51.13,10.69,10.69,0,0,1-1.51.07l-4.11.12a60.44,60.44,0,0,1-13.58-.8,19.63,19.63,0,0,1-7.07-2.6,10.13,10.13,0,0,1-3.77-4.84,14.75,14.75,0,0,1-.89-4,10.4,10.4,0,0,1-.05-1.12C223.2,283.37,223.21,283.23,223.23,283.23Z" style="fill:#263238"></path></g><g id="freepik--bricks--inject-55"><polygon points="372.54 465.98 127.65 465.98 127.65 374.89 398.24 374.89 398.24 435.99 372.54 435.91 372.54 465.98" style="fill:#e0e0e0"></polygon><rect x="98.74" y="405.84" width="36.35" height="60.14" style="fill:#e0e0e0"></rect><rect x="65.1" y="435.91" width="36.35" height="30.07" style="fill:#e0e0e0"></rect><rect x="389.62" y="405.71" width="36.35" height="30.07" style="fill:#e0e0e0"></rect><path d="M424.28,405.71c0,.14-66.48.26-148.46.26s-148.48-.12-148.48-.26,66.47-.26,148.48-.26S424.28,405.56,424.28,405.71Z" style="fill:#263238"></path><path d="M424.28,435.77c0,.15-80.41.27-179.58.27s-179.6-.12-179.6-.27,80.39-.26,179.6-.26S424.28,435.63,424.28,435.77Z" style="fill:#263238"></path><path d="M135,466c-.15,0-.26-6.74-.26-15s.11-15,.26-15,.26,6.73.26,15S135.18,466,135,466Z" style="fill:#263238"></path><path d="M194.41,466c-.14,0-.26-6.74-.26-15s.12-15,.26-15,.26,6.73.26,15S194.56,466,194.41,466Z" style="fill:#263238"></path><path d="M253.79,466c-.14,0-.26-6.74-.26-15s.12-15,.26-15,.26,6.73.26,15S253.93,466,253.79,466Z" style="fill:#263238"></path><path d="M254.11,405.92c-.15,0-.26-6.73-.26-15s.11-15,.26-15,.26,6.73.26,15S254.25,405.92,254.11,405.92Z" style="fill:#263238"></path><path d="M328.71,405.92c-.14,0-.26-6.73-.26-15s.12-15,.26-15,.26,6.73.26,15S328.86,405.92,328.71,405.92Z" style="fill:#263238"></path><path d="M313.17,466c-.15,0-.26-6.74-.26-15s.11-15,.26-15,.26,6.73.26,15S313.31,466,313.17,466Z" style="fill:#263238"></path><path d="M372.54,466c-.14,0-.26-6.74-.26-15s.12-15,.26-15,.26,6.73.26,15S372.69,466,372.54,466Z" style="fill:#263238"></path><path d="M161.6,436c-.15,0-.26-6.73-.26-15s.11-15,.26-15,.26,6.73.26,15S161.74,436,161.6,436Z" style="fill:#263238"></path><path d="M231,436c-.15,0-.26-6.73-.26-15s.11-15,.26-15,.26,6.73.26,15S231.15,436,231,436Z" style="fill:#263238"></path><path d="M300.42,436c-.14,0-.26-6.73-.26-15s.12-15,.26-15,.26,6.73.26,15S300.56,436,300.42,436Z" style="fill:#263238"></path><path d="M367.28,436c-.15,0-.27-6.73-.27-15s.12-15,.27-15,.26,6.73.26,15S367.42,436,367.28,436Z" style="fill:#263238"></path><path d="M188.16,406c-.15,0-.26-6.73-.26-15s.11-15,.26-15,.26,6.73.26,15S188.3,406,188.16,406Z" style="fill:#263238"></path><path d="M398.24,374.89c0,.14-60.58.26-135.29.26s-135.3-.12-135.3-.26,60.57-.26,135.3-.26S398.24,374.75,398.24,374.89Z" style="fill:#263238"></path></g></svg>