<svg xmlns="http://www.w3.org/2000/svg" viewBox="0 0 500 500"><g id="freepik--background-complete--inject-25"><rect x="324.95" y="162.52" width="26.48" height="11.19" style="fill:#ebebeb"></rect><rect x="310.18" y="176.63" width="26.48" height="11.19" style="fill:#ebebeb"></rect><rect x="339.73" y="176.63" width="26.48" height="11.19" style="fill:#ebebeb"></rect><rect x="434.79" y="268.53" width="26.48" height="11.19" style="fill:#ebebeb"></rect><rect x="434.79" y="56.49" width="26.48" height="11.19" style="fill:#ebebeb"></rect><rect x="449.56" y="70.6" width="26.48" height="11.19" style="fill:#ebebeb"></rect><rect x="27.85" y="89.23" width="26.48" height="11.19" style="fill:#ebebeb"></rect><rect x="25.95" y="290.79" width="26.48" height="11.19" transform="translate(78.38 592.77) rotate(180)" style="fill:#ebebeb"></rect><rect x="40.72" y="276.68" width="26.48" height="11.19" transform="translate(107.93 564.55) rotate(180)" style="fill:#ebebeb"></rect><rect x="256.03" y="123.78" width="177.53" height="7.78" style="fill:#ebebeb"></rect><rect x="265.98" y="131.57" width="7.79" height="25.75" style="fill:#ebebeb"></rect><rect x="265.98" y="131.57" width="7.79" height="7.96" style="fill:#dbdbdb"></rect><rect x="415.82" y="131.57" width="7.79" height="25.75" style="fill:#ebebeb"></rect><rect x="415.82" y="131.57" width="7.79" height="7.96" style="fill:#dbdbdb"></rect><rect x="270.61" y="92.73" width="49.61" height="12.49" transform="translate(394.39 -196.44) rotate(90)" style="fill:#c7c7c7"></rect><rect x="292.69" y="67.99" width="5.45" height="12.49" transform="translate(369.66 -221.17) rotate(90)" style="fill:#dbdbdb"></rect><rect x="294.4" y="78.72" width="2.02" height="12.49" transform="translate(380.38 -210.45) rotate(90)" style="fill:#dbdbdb"></rect><rect x="293.47" y="107.52" width="5.45" height="14.05" transform="translate(410.74 -181.64) rotate(90)" style="fill:#dbdbdb"></rect><rect x="277.09" y="90.48" width="57.88" height="8.73" transform="translate(400.87 -211.18) rotate(90)" style="fill:#dbdbdb"></rect><rect x="294.86" y="79.86" width="22.26" height="5.24" transform="translate(388.47 -223.51) rotate(90)" style="fill:#ebebeb"></rect><rect x="319.93" y="95.98" width="57.88" height="8.73" transform="translate(171.29 -216.26) rotate(44.67)" style="fill:#c7c7c7"></rect><rect x="340.76" y="100.68" width="22.26" height="5.24" transform="translate(174.23 -217.54) rotate(44.67)" style="fill:#dbdbdb"></rect><rect x="295.82" y="94.4" width="43.96" height="14.83" transform="translate(419.61 -215.99) rotate(90)" style="fill:#a6a6a6"></rect><rect x="315.75" y="109.67" width="4.1" height="14.83" transform="translate(434.89 -200.72) rotate(90)" style="fill:#c7c7c7"></rect><rect x="317.01" y="104.14" width="1.59" height="14.83" transform="translate(429.35 -206.25) rotate(90)" style="fill:#c7c7c7"></rect><rect x="263.39" y="98.01" width="41.31" height="10.24" transform="translate(387.18 -180.91) rotate(90)" style="fill:#a6a6a6"></rect><rect x="282.12" y="112.37" width="3.85" height="10.24" transform="translate(401.53 -166.56) rotate(90)" style="fill:#c7c7c7"></rect><rect x="282.12" y="87.8" width="3.85" height="10.24" transform="translate(376.96 -191.12) rotate(90)" style="fill:#c7c7c7"></rect><rect x="283.3" y="93.11" width="1.49" height="10.24" transform="translate(382.27 -185.82) rotate(90)" style="fill:#c7c7c7"></rect><polygon points="414.89 104.53 413.77 107.48 413.09 109.28 411.98 112.23 407.61 123.79 384.03 123.79 379.65 112.23 378.54 109.28 377.86 107.48 376.74 104.53 385.44 91.85 380.93 83.48 410.72 83.48 406.19 91.85 414.89 104.53" style="fill:#dbdbdb"></polygon><polygon points="414.89 104.53 413.77 107.48 377.86 107.48 376.74 104.53 414.89 104.53" style="fill:#a6a6a6"></polygon><polygon points="413.09 109.28 411.98 112.23 379.65 112.23 378.54 109.28 413.09 109.28" style="fill:#a6a6a6"></polygon><rect x="74.51" y="41.3" width="133.02" height="203.96" style="fill:#ebebeb"></rect><rect x="81.75" y="49.47" width="56.17" height="90.72" style="fill:#fff"></rect><rect x="144.1" y="49.47" width="56.17" height="90.72" style="fill:#fff"></rect><rect x="81.75" y="146.37" width="56.17" height="90.72" style="fill:#fff"></rect><rect x="144.1" y="146.37" width="56.17" height="90.72" style="fill:#fff"></rect><rect x="74.51" y="41.3" width="31.51" height="291.8" style="fill:#dbdbdb"></rect><polygon points="100.04 55.17 100.28 86.72 100.37 118.27 100.54 181.37 100.37 244.47 100.28 276.02 100.04 307.57 99.79 276.02 99.7 244.47 99.54 181.37 99.71 118.27 99.79 86.72 100.04 55.17" style="fill:#ebebeb"></polygon><polygon points="85.57 62.49 85.81 90.66 85.95 118.83 86.07 175.17 85.95 231.52 85.81 259.69 85.57 287.86 85.33 259.69 85.19 231.52 85.07 175.17 85.19 118.83 85.33 90.66 85.57 62.49" style="fill:#ebebeb"></polygon><polygon points="92.8 69.14 93.05 102.13 93.14 135.11 93.3 201.09 93.14 267.06 93.05 300.05 92.8 333.03 92.56 300.05 92.47 267.06 92.31 201.09 92.47 135.11 92.56 102.13 92.8 69.14" style="fill:#ebebeb"></polygon><polygon points="80.19 56.84 80.43 91.36 80.52 125.89 80.69 194.93 80.52 263.98 80.44 298.51 80.19 333.03 79.95 298.51 79.86 263.98 79.69 194.93 79.86 125.89 79.95 91.36 80.19 56.84" style="fill:#ebebeb"></polygon><rect x="176.02" y="41.3" width="31.51" height="291.8" transform="translate(383.54 374.4) rotate(180)" style="fill:#dbdbdb"></rect><polygon points="181.99 55.17 182.23 86.72 182.32 118.27 182.49 181.37 182.32 244.47 182.24 276.02 181.99 307.57 181.75 276.02 181.66 244.47 181.49 181.37 181.66 118.27 181.75 86.72 181.99 55.17" style="fill:#ebebeb"></polygon><polygon points="196.46 62.49 196.7 90.66 196.84 118.83 196.96 175.17 196.84 231.52 196.7 259.69 196.46 287.86 196.21 259.69 196.07 231.52 195.96 175.17 196.07 118.83 196.21 90.66 196.46 62.49" style="fill:#ebebeb"></polygon><polygon points="189.22 69.14 189.47 102.13 189.56 135.11 189.72 201.09 189.56 267.06 189.47 300.05 189.22 333.03 188.98 300.05 188.89 267.06 188.72 201.09 188.89 135.11 188.98 102.13 189.22 69.14" style="fill:#ebebeb"></polygon><polygon points="201.84 56.84 202.08 91.36 202.17 125.89 202.34 194.93 202.17 263.98 202.08 298.51 201.84 333.03 201.59 298.51 201.5 263.98 201.34 194.93 201.51 125.89 201.59 91.36 201.84 56.84" style="fill:#ebebeb"></polygon></g><g id="freepik--Floor--inject-25"><polygon points="11.22 346.51 70.92 346.26 130.61 346.18 250 346.01 369.39 346.18 429.08 346.26 488.78 346.51 429.08 346.75 369.39 346.84 250 347.01 130.61 346.84 70.92 346.75 11.22 346.51" style="fill:#263238"></polygon></g><g id="freepik--Shadows--inject-25"><ellipse cx="409.84" cy="451.35" rx="63.8" ry="10.45" style="fill:#ebebeb"></ellipse><ellipse cx="245.36" cy="409.72" rx="204.27" ry="25.43" style="fill:#ebebeb"></ellipse></g><g id="freepik--Books--inject-25"><polygon points="349.84 362.68 149.35 362.68 212.3 215.74 412.8 215.74 349.84 362.68" style="fill:#263238"></polygon><polygon points="213.78 218.87 411.46 218.87 349.84 362.68 152.91 362.68 213.78 218.87" style="fill:#ebebeb"></polygon><path d="M213.78,218.87a121,121,0,0,1-4.7,41.06c-6.45,21.1-38.41,63.36-44.63,91.86l-11.54,10.89H349.84l61.62-143.81Z" style="fill:#dbdbdb"></path><path d="M213.78,218.87a189.79,189.79,0,0,1-5.42,35,87.08,87.08,0,0,1-6.09,16.69c-2.58,5.34-5.4,10.53-8.24,15.72-5.75,10.32-11.56,20.61-16.89,31.14-2.69,5.26-5.17,10.61-7.5,16a171.13,171.13,0,0,0-6.07,16.63,158.68,158.68,0,0,1,5.61-16.82c2.25-5.47,4.66-10.87,7.27-16.18,5.2-10.63,11-20.93,16.71-31.28,2.86-5.17,5.7-10.34,8.29-15.64a91.89,91.89,0,0,0,6.17-16.49,169.45,169.45,0,0,0,3.79-17.28C212.42,230.61,213.19,224.75,213.78,218.87Z" style="fill:#dbdbdb"></path><path d="M211.76,227.4a143.43,143.43,0,0,1-8.53,33.23,156.44,156.44,0,0,1-7.13,15.65c-2.6,5.11-5.3,10.16-8,15.22-5.41,10.08-10.64,20.26-15.21,30.73-1.18,2.61-2.23,5.27-3.33,7.91s-2.08,5.32-3,8c-2,5.37-3.54,10.87-5.08,16.39a194.55,194.55,0,0,1,10.69-32.63c4.44-10.57,9.69-20.78,15-30.9,2.7-5,5.43-10.08,8-15.16s5.1-10.23,7.23-15.52a157.07,157.07,0,0,0,5.5-16.22A140.81,140.81,0,0,0,211.76,227.4Z" style="fill:#dbdbdb"></path><path d="M276.33,370.83H468.89l-65.18-152H213.78s-.75,23,11.85,56.3C237.5,306.53,259.46,325.38,276.33,370.83Z" style="fill:#fff"></path><path d="M275.2,370.83c-2.74-6.4-5.72-12.68-9.05-18.78s-6.94-12-10.7-17.89c-7.5-11.69-15.91-22.79-23.22-34.71a138.81,138.81,0,0,1-9.65-18.65,96.92,96.92,0,0,1-5.66-20.25,186.64,186.64,0,0,1-2.6-20.78,205.34,205.34,0,0,1-.54-20.9,354,354,0,0,0,5,41.33c.66,3.4,1.47,6.76,2.34,10.1a83.1,83.1,0,0,0,3.17,9.81,136.93,136.93,0,0,0,9.42,18.45c7.15,11.88,15.33,23.18,22.69,35A215.45,215.45,0,0,1,275.2,370.83Z" style="fill:#fff"></path><path d="M215.66,223.26c.94,5.89,2.13,11.74,3.53,17.53s3,11.54,4.81,17.2a179.26,179.26,0,0,0,13.91,32.82q4.34,7.81,8.8,15.57l8.95,15.49c3,5.18,5.88,10.39,8.6,15.71s5.2,10.75,7.42,16.29A291.34,291.34,0,0,0,255,322.26c-6.09-10.26-12.13-20.56-18-31a173.87,173.87,0,0,1-13.76-33.07A211.42,211.42,0,0,1,215.66,223.26Z" style="fill:#ebebeb"></path><polygon points="280.3 373.96 480.79 373.96 412.93 215.74 212.43 215.74 280.3 373.96" style="fill:#37474f"></polygon><polygon points="409.71 373.96 453.82 373.96 385.96 215.74 341.85 215.74 409.71 373.96" style="fill:#455a64"></polygon><polygon points="301.15 373.96 317.12 373.96 249.26 215.74 233.28 215.74 301.15 373.96" style="fill:#455a64"></polygon><polygon points="213.78 218.87 414.27 218.87 416.4 213.86 210.21 213.86 213.78 218.87" style="fill:#37474f"></polygon><rect x="378.44" y="416.64" width="9.25" height="18.67" style="fill:#37474f"></rect><rect x="391.12" y="416.64" width="3.86" height="18.67" style="fill:#37474f"></rect><rect x="370.02" y="416.64" width="94.64" height="18.67" style="fill:#FFC727"></rect><rect x="446.81" y="416.64" width="9.25" height="18.67" style="fill:#37474f"></rect><rect x="355.02" y="402.71" width="65.65" height="13.93" style="fill:#455a64"></rect><rect x="420.67" y="402.71" width="28.32" height="13.93" style="fill:#455a64"></rect><rect x="355.02" y="404.15" width="65.65" height="11.04" style="fill:#fff"></rect><path d="M359.27,406.42q7.67-.1,15.35-.16l15.35-.05,15.35.05q7.67,0,15.35.16-7.68.12-15.35.17l-15.35.05-15.35-.05Q366.94,406.55,359.27,406.42Z" style="fill:#dbdbdb"></path><path d="M359.27,408.59q7.67-.12,15.35-.16l15.35-.05,15.35.05q7.67,0,15.35.16-7.68.12-15.35.16L390,408.8l-15.35-.05Q366.94,408.71,359.27,408.59Z" style="fill:#dbdbdb"></path><path d="M359.27,410.76q7.67-.12,15.35-.17l15.35,0,15.35,0q7.67,0,15.35.17-7.68.11-15.35.16L390,411l-15.35-.05Q366.94,410.88,359.27,410.76Z" style="fill:#dbdbdb"></path><path d="M359.27,412.92q7.67-.12,15.35-.16l15.35-.05,15.35.05q7.67,0,15.35.16-7.68.12-15.35.17l-15.35,0-15.35-.05Q366.94,413.05,359.27,412.92Z" style="fill:#dbdbdb"></path><rect x="388.16" y="435.31" width="55" height="19.15" transform="translate(831.33 889.77) rotate(180)" style="fill:#263238"></rect><rect x="364.44" y="435.31" width="23.73" height="19.15" transform="translate(752.6 889.77) rotate(180)" style="fill:#263238"></rect><rect x="388.16" y="437.3" width="55" height="15.17" transform="translate(831.33 889.77) rotate(180)" style="fill:#fff"></rect><path d="M439.6,449.35q-6.42.12-12.86.16l-12.86.05L401,449.51q-6.42,0-12.86-.16,6.43-.12,12.86-.16l12.86-.05,12.86.05Q433.17,449.22,439.6,449.35Z" style="fill:#dbdbdb"></path><path d="M439.6,446.37q-6.42.12-12.86.17l-12.86,0-12.86,0q-6.42,0-12.86-.17,6.43-.12,12.86-.16l12.86,0,12.86,0Q433.17,446.26,439.6,446.37Z" style="fill:#dbdbdb"></path><path d="M439.6,443.4q-6.42.11-12.86.16l-12.86.05L401,443.56q-6.42,0-12.86-.16,6.43-.12,12.86-.17l12.86-.05,12.86.05Q433.17,443.28,439.6,443.4Z" style="fill:#dbdbdb"></path><path d="M439.6,440.42q-6.42.12-12.86.16l-12.86.05L401,440.58q-6.42,0-12.86-.16,6.43-.12,12.86-.17l12.86,0,12.86.05Q433.17,440.29,439.6,440.42Z" style="fill:#dbdbdb"></path><rect x="367.06" y="389.71" width="86.49" height="13.05" style="fill:#FFC727"></rect><rect x="367.06" y="389.71" width="86.49" height="13.05" style="opacity:0.2"></rect><rect x="375.19" y="392.38" width="33.27" height="7.83" style="fill:#fff"></rect><rect x="384.49" y="367.5" width="65.7" height="22.16" style="fill:#FFC727"></rect><rect x="437.1" y="367.5" width="6.12" height="22.16" style="fill:#263238"></rect><rect x="430.71" y="367.5" width="2.37" height="22.16" style="fill:#263238"></rect></g><g id="freepik--Character--inject-25"><polygon points="125.31 426.07 48.62 405.87 12.94 425 87.96 450 125.31 426.07" style="fill:#FFC727"></polygon><path d="M120.56,425.72l-34.2,22L16.05,424.33,50.55,406s21,2.77,22,3.08,10.25,4.15,10.25,4.15,13,2.27,13.91,2.57S120.56,425.72,120.56,425.72Z" style="fill:#fff"></path><path d="M82.82,413.24q-4,2.91-8.12,5.75l-8.21,5.63-8.27,5.54q-4.14,2.74-8.34,5.42,4-2.91,8.13-5.74l8.2-5.63,8.27-5.54C77.24,416.84,80,415,82.82,413.24Z" style="fill:#dbdbdb"></path><path d="M113,425.52q-3.75-1.47-7.47-3l-7.42-3.1-1.86-.78-.91-.36c-.32-.09-.65-.15-1-.23l-3.91-.92c-2.6-.62-5.2-1.28-7.8-2q4,.75,7.9,1.59l3.94.85c.33.08.65.13,1,.23s.65.24,1,.36l1.87.76c2.47,1.06,4.93,2.11,7.38,3.2S110.6,424.37,113,425.52Z" style="fill:#dbdbdb"></path><path d="M110.64,426.93q-3.73-1.47-7.46-3l-7.43-3.09-1.85-.78c-.31-.12-.62-.26-.92-.36s-.64-.16-1-.24l-3.91-.92q-3.9-.93-7.8-1.95c2.64.5,5.27,1,7.9,1.58l3.94.86c.32.07.65.13,1,.22s.64.24,1,.37l1.87.76c2.46,1.05,4.93,2.1,7.38,3.2S108.22,425.78,110.64,426.93Z" style="fill:#dbdbdb"></path><path d="M108.26,428.33c-2.44-1-4.88-1.93-7.3-2.94l-7.25-3-1.81-.76a11.71,11.71,0,0,0-1.82-.66L86.26,420q-3.83-.9-7.63-1.89,3.87.71,7.72,1.51c1.28.26,2.56.56,3.84.85a12.77,12.77,0,0,1,1.89.66l1.82.75c2.41,1,4.82,2.06,7.21,3.14S105.89,427.21,108.26,428.33Z" style="fill:#dbdbdb"></path><path d="M105.88,429.73q-3.61-1.41-7.19-2.89l-7.16-3c-1.18-.48-2.38-1.05-3.56-1.44l-3.76-.9c-2.51-.61-5-1.23-7.52-1.88q3.81.69,7.61,1.49c1.27.26,2.52.54,3.79.85s2.43.93,3.63,1.42c2.38,1,4.76,2,7.11,3.1S103.54,428.63,105.88,429.73Z" style="fill:#dbdbdb"></path><path d="M103.49,431.14q-3.58-1.41-7.16-2.88l-7.13-3c-1.18-.48-2.38-1-3.55-1.45s-2.5-.59-3.74-.9c-2.51-.6-5-1.22-7.5-1.87q3.81.69,7.59,1.48c1.26.26,2.51.54,3.77.85s2.42.94,3.62,1.43c2.37,1,4.74,2,7.09,3.08S101.17,430,103.49,431.14Z" style="fill:#dbdbdb"></path><path d="M101.11,432.54c-2.39-.94-4.77-1.89-7.14-2.87l-7.11-3c-1.18-.48-2.37-1-3.53-1.45s-2.49-.59-3.73-.9q-3.75-.9-7.47-1.87,3.78.69,7.55,1.48c1.26.26,2.51.54,3.77.85s2.41.94,3.6,1.43c2.36,1,4.72,2,7.06,3.08S98.79,431.44,101.11,432.54Z" style="fill:#dbdbdb"></path><path d="M98.73,434c-2.36-.93-4.71-1.87-7-2.84l-7-2.92c-1.16-.48-2.33-1-3.49-1.45s-2.44-.6-3.66-.91c-2.46-.59-4.92-1.2-7.37-1.85q3.73.67,7.46,1.46c1.24.27,2.46.51,3.72.86s2.36.94,3.54,1.44c2.32,1,4.65,2,7,3S96.44,432.86,98.73,434Z" style="fill:#dbdbdb"></path><path d="M96.35,435.35c-2.36-.93-4.72-1.87-7.06-2.84l-7-2.92c-1.17-.47-2.34-1-3.49-1.44s-2.45-.61-3.67-.91c-2.46-.6-4.92-1.21-7.37-1.85,2.5.44,5,.93,7.46,1.45,1.25.28,2.47.51,3.73.87s2.36.93,3.53,1.43c2.33,1,4.66,2,7,3S94.05,434.27,96.35,435.35Z" style="fill:#dbdbdb"></path><path d="M94.37,437c-2.39-1-4.78-1.91-7.15-2.9l-7.11-3-3.55-1.48c-1.17-.39-2.47-.63-3.71-.94-2.5-.61-5-1.22-7.48-1.88,2.53.45,5.06.95,7.57,1.48,1.26.29,2.5.5,3.78.9s2.4,1,3.58,1.47c2.36,1,4.72,2,7.06,3.09S92,435.86,94.37,437Z" style="fill:#dbdbdb"></path><path d="M92,438.42c-2.38-.95-4.76-1.91-7.13-2.91l-7.08-3L74.23,431c-1.16-.4-2.46-.63-3.69-.94-2.49-.61-5-1.22-7.47-1.87q3.79.67,7.56,1.47c1.26.29,2.49.49,3.77.91s2.38,1,3.56,1.47c2.35,1,4.71,2,7,3.11S89.66,437.32,92,438.42Z" style="fill:#dbdbdb"></path><path d="M89.59,440c-2.31-.94-4.62-1.9-6.91-2.88s-4.57-2-6.87-3l-3.43-1.48a7.49,7.49,0,0,0-1.73-.58l-1.82-.44c-2.42-.59-4.84-1.19-7.25-1.83,2.46.42,4.9.9,7.35,1.42l1.82.41c.31.07.61.13.92.23s.6.23.9.35c1.15.47,2.3,1,3.44,1.47,2.27,1,4.56,2,6.82,3.08S87.34,438.9,89.59,440Z" style="fill:#dbdbdb"></path><path d="M87.21,441.29c-2.35-.85-4.69-1.71-7-2.61s-4.65-1.81-7-2.7c-1.17-.43-2.34-.93-3.49-1.32l-3.59-1.06c-2.39-.73-4.78-1.47-7.15-2.27,2.43.59,4.85,1.22,7.26,1.87l3.61,1c1.22.4,2.36.86,3.53,1.32,2.32.93,4.65,1.84,6.95,2.81S84.92,440.29,87.21,441.29Z" style="fill:#dbdbdb"></path><path d="M52.77,429.91c-2.24-.78-4.44-1.62-6.64-2.49l-1.64-.64a13,13,0,0,0-1.67-.52l-3.41-.94-6.83-1.92c-2.27-.63-4.53-1.32-6.8-2,2.29.57,4.59,1.11,6.88,1.7l6.86,1.78,3.42.9a16.07,16.07,0,0,1,1.72.52c.56.21,1.1.44,1.65.66C48.5,427.88,50.65,428.85,52.77,429.91Z" style="fill:#dbdbdb"></path><path d="M55.08,428.1q-3.3-1-6.54-2.08c-1.08-.35-2.16-.75-3.24-1.06L42,424l-6.59-1.9c-2.2-.63-4.38-1.32-6.57-2,2.22.57,4.44,1.1,6.65,1.69l6.62,1.76a66.3,66.3,0,0,1,6.58,2C50.85,426.35,53,427.2,55.08,428.1Z" style="fill:#dbdbdb"></path><path d="M57.31,426.49c-2.18-.64-4.35-1.31-6.5-2.05l-3.22-1.07-3.29-.83-6.59-1.7c-2.2-.56-4.39-1.18-6.58-1.77,2.22.49,4.44,1,6.65,1.48l6.63,1.55,3.32.81c1.1.32,2.16.72,3.23,1.1C53.1,424.77,55.21,425.61,57.31,426.49Z" style="fill:#dbdbdb"></path><path d="M59.22,425.3c-2.16-.76-4.26-1.67-6.37-2.51a9.21,9.21,0,0,0-1.58-.54l-1.67-.38-3.34-.74q-6.67-1.49-13.34-3.08,6.73,1.26,13.43,2.66l3.35.71,1.67.37a9,9,0,0,1,1.66.54A67.6,67.6,0,0,1,59.22,425.3Z" style="fill:#dbdbdb"></path><path d="M61.31,423.84c-2.16-.75-4.26-1.66-6.37-2.5a9.25,9.25,0,0,0-1.58-.55l-1.67-.37-3.34-.74q-6.68-1.5-13.34-3.08,6.74,1.26,13.43,2.66l3.35.71,1.68.36a9.5,9.5,0,0,1,1.66.55A66,66,0,0,1,61.31,423.84Z" style="fill:#dbdbdb"></path><path d="M63.4,422.39c-2.16-.76-4.26-1.67-6.37-2.51a9.21,9.21,0,0,0-1.58-.54L53.78,419l-3.34-.74q-6.67-1.49-13.34-3.07,6.74,1.26,13.43,2.65l3.35.72,1.68.36a8.73,8.73,0,0,1,1.66.55A63.69,63.69,0,0,1,63.4,422.39Z" style="fill:#dbdbdb"></path><path d="M65.49,420.94c-2.16-.76-4.26-1.67-6.37-2.51a9.21,9.21,0,0,0-1.58-.54l-1.67-.38-3.34-.74c-4.45-1-8.9-2-13.34-3.08q6.74,1.26,13.43,2.66l3.35.71,1.68.37a8.48,8.48,0,0,1,1.66.54A66.19,66.19,0,0,1,65.49,420.94Z" style="fill:#dbdbdb"></path><path d="M68.19,419.77c-2.16-.76-4.26-1.67-6.37-2.51a9.51,9.51,0,0,0-1.58-.54l-1.67-.38-3.34-.74q-6.67-1.49-13.34-3.07,6.74,1.26,13.43,2.65l3.35.72,1.67.36a9,9,0,0,1,1.66.54A67.6,67.6,0,0,1,68.19,419.77Z" style="fill:#dbdbdb"></path><path d="M70.81,418.61c-2.16-.76-4.25-1.67-6.37-2.51a10.16,10.16,0,0,0-1.58-.54l-1.67-.37-3.34-.74q-6.68-1.5-13.34-3.08,6.74,1.26,13.43,2.66l3.35.71,1.68.36a9.23,9.23,0,0,1,1.66.55A63.69,63.69,0,0,1,70.81,418.61Z" style="fill:#dbdbdb"></path><path d="M72.9,417.16c-2.16-.76-4.25-1.67-6.36-2.5a8.58,8.58,0,0,0-1.57-.54l-1.67-.35L60,413.09c-4.46-.92-8.92-1.85-13.37-2.83q6.74,1.13,13.46,2.41l3.35.65,1.68.34a8.48,8.48,0,0,1,1.66.54A64.65,64.65,0,0,1,72.9,417.16Z" style="fill:#dbdbdb"></path><path d="M75,415.71c-2.15-.76-4.24-1.67-6.35-2.5a8.49,8.49,0,0,0-1.56-.54l-1.68-.32-3.35-.61c-4.47-.83-8.95-1.67-13.41-2.55q6.75,1,13.48,2.12l3.37.59,1.68.31a8.27,8.27,0,0,1,1.66.54A64.49,64.49,0,0,1,75,415.71Z" style="fill:#dbdbdb"></path><path d="M77.08,414.25c-2.15-.75-4.23-1.66-6.33-2.49a8.21,8.21,0,0,0-1.56-.53L67.51,411l-3.36-.51c-4.49-.67-9-1.35-13.46-2.08q6.77.75,13.52,1.66l3.37.47,1.69.27a6.86,6.86,0,0,1,1.66.53A65.5,65.5,0,0,1,77.08,414.25Z" style="fill:#dbdbdb"></path><path d="M84.78,443.31q-3.6-1.19-7.17-2.44l-7.13-2.54c-1.19-.41-2.38-.88-3.55-1.27l-3.61-1.15c-2.41-.78-4.8-1.58-7.18-2.42q3.66,1,7.29,2l3.63,1.09c1.22.4,2.4.82,3.58,1.26,2.37.88,4.75,1.74,7.1,2.66S82.44,442.36,84.78,443.31Z" style="fill:#dbdbdb"></path><path d="M51.05,431.68c-2.43-.74-4.84-1.5-7.25-2.29L36.59,427,33,425.79l-3.65-1.07c-2.42-.73-4.84-1.48-7.25-2.27,2.46.59,4.91,1.23,7.36,1.88l3.66,1c1.23.38,2.42.77,3.63,1.19,2.39.83,4.79,1.64,7.17,2.51S48.68,430.78,51.05,431.68Z" style="fill:#dbdbdb"></path><path d="M422.9,293.92c-2-1.48-67.73-21.85-70.72-21.05-.33.09-1,3.05-4,10.38-.14.34-31.39,38.23-31.39,38.23l42.77,22.57L384,309.64s30.54-5.79,33.73-7S425,295.4,422.9,293.92Z" style="fill:#ad6359"></path><path d="M422.9,293.92c-2-1.48-67.73-21.85-70.72-21.05-.33.09-1,3.05-4,10.38-.14.34-4.42,5.31-6.51,8,2.72,2.34,29,20.86,36.17,27l6.13-8.64s30.54-5.79,33.73-7S425,295.4,422.9,293.92Z" style="fill:#FFC727"></path><path d="M364.69,279.25a9.8,9.8,0,0,1-1.27,2.1,10.43,10.43,0,0,1-3.76,3,9.65,9.65,0,0,1-4.8.87,11.7,11.7,0,0,1-4.64-1.48c-.08,0,0-.17.07-.12a10,10,0,0,0,9.08-.17,9.74,9.74,0,0,0,3.37-2.88,10.43,10.43,0,0,0,1.09-1.89,7.39,7.39,0,0,0,.39-1c.11-.35.14-.64.48-.84a.35.35,0,0,1,.47.13C365.55,277.57,364.93,278.71,364.69,279.25Z" style="fill:#fff"></path><path d="M409.08,304.59a7.44,7.44,0,0,1-3.55-2.79,19.35,19.35,0,0,1-2.38-4.2,19,19,0,0,1-1.29-4.56,22.08,22.08,0,0,1-.21-2.3,8,8,0,0,1,.14-2.35.14.14,0,0,1,.27,0c.14.67.11,1.4.19,2.08a22.24,22.24,0,0,0,.36,2.29,24.58,24.58,0,0,0,1.32,4.3,14.64,14.64,0,0,0,5.4,6.95A.32.32,0,0,1,409.08,304.59Z" style="fill:#fff"></path><path d="M377.87,310.33c-8-5.76-15.93-11.58-24-17.26-2.28-1.61-4.54-3.25-6.84-4.82-.08-.05,0-.16.08-.11a271.68,271.68,0,0,1,24.48,16.58c2.22,1.71,4.37,3.5,6.51,5.3A.2.2,0,0,1,377.87,310.33Z" style="fill:#fff"></path><path d="M347.79,289.53a.57.57,0,0,1-.11.16l-.18.12-.35.23c-.24.16-.49.32-.74.46-.5.28-1,.54-1.52.79-.07,0-.14-.08-.07-.12.48-.3.95-.61,1.42-.93l.68-.47.36-.25a1,1,0,0,1,.37-.19A.14.14,0,0,1,347.79,289.53Z" style="fill:#fff"></path><path d="M351.52,292.27a.38.38,0,0,1-.12.16l-.18.13-.34.23c-.25.16-.49.32-.75.46-.49.28-1,.54-1.51.79-.08,0-.14-.08-.07-.12.48-.3.95-.62,1.41-.94l.69-.46.36-.25a.87.87,0,0,1,.37-.19A.14.14,0,0,1,351.52,292.27Z" style="fill:#fff"></path><path d="M355.24,295a.46.46,0,0,1-.11.16l-.18.12-.35.23c-.24.17-.49.32-.74.47-.5.28-1,.54-1.52.78-.07,0-.14-.07-.07-.12.48-.29,1-.61,1.42-.93.22-.16.45-.31.68-.46l.36-.25a.77.77,0,0,1,.37-.19A.13.13,0,0,1,355.24,295Z" style="fill:#fff"></path><path d="M359,297.77a.45.45,0,0,1-.12.16l-.18.12-.34.23c-.25.16-.49.32-.75.46-.49.28-1,.54-1.51.79a.07.07,0,0,1-.07-.12q.72-.45,1.41-.93l.69-.47.36-.25a1,1,0,0,1,.37-.19A.15.15,0,0,1,359,297.77Z" style="fill:#fff"></path><path d="M362.7,300.51a.67.67,0,0,1-.12.16l-.18.13-.35.23c-.24.16-.49.32-.74.46-.5.28-1,.54-1.52.79-.07,0-.14-.08-.07-.12.48-.3.95-.61,1.42-.94l.68-.46.36-.25a.87.87,0,0,1,.37-.19A.14.14,0,0,1,362.7,300.51Z" style="fill:#fff"></path><path d="M366.42,303.26a.38.38,0,0,1-.12.16l-.18.12-.34.24-.75.46c-.49.28-1,.54-1.51.79a.08.08,0,0,1-.07-.13c.48-.29.95-.61,1.41-.93l.69-.46.36-.25a.77.77,0,0,1,.37-.19A.14.14,0,0,1,366.42,303.26Z" style="fill:#fff"></path><path d="M370.15,306a1,1,0,0,1-.12.16l-.18.12-.35.23c-.24.16-.49.32-.74.46-.5.29-1,.54-1.52.79-.07,0-.14-.08-.07-.12.48-.3.95-.61,1.42-.93l.68-.47.36-.25a.91.91,0,0,1,.37-.18A.14.14,0,0,1,370.15,306Z" style="fill:#fff"></path><path d="M373.87,308.75a.33.33,0,0,1-.12.16,1.18,1.18,0,0,1-.18.13l-.34.23c-.24.16-.49.32-.75.46-.49.28-1,.54-1.51.79-.07,0-.14-.08-.07-.12.48-.3,1-.61,1.41-.94L373,309l.36-.25a1,1,0,0,1,.37-.19A.13.13,0,0,1,373.87,308.75Z" style="fill:#fff"></path><path d="M377.6,311.5a.67.67,0,0,1-.12.16l-.18.13a4,4,0,0,0-.34.23l-.75.46c-.5.28-1,.54-1.52.79-.07,0-.13-.08-.07-.13.49-.29,1-.61,1.42-.93l.68-.46.36-.25a.93.93,0,0,1,.37-.19A.14.14,0,0,1,377.6,311.5Z" style="fill:#fff"></path><path d="M372.16,327.26l-37.72-29.69s-38.74,49.5-39.4,49.84c0,0-26.82.32-51.39,5.21-4.39.87-27.75-10.53-53.88,11.45L193.7,405c41.09,5.88,98.41-3,122.84-11C339.61,386.49,372.16,327.26,372.16,327.26Z" style="fill:#263238"></path><path d="M366.88,331.13c-8.49-7-17.05-13.92-26-20.38-2.54-1.84-5.15-3.57-7.65-5.46-.08-.07-.17.07-.09.14,2.18,1.69,4.24,3.53,6.38,5.27s4.27,3.48,6.43,5.19c4.31,3.41,8.76,6.63,13.18,9.88,2.53,1.86,5.08,3.68,7.63,5.5C366.88,331.33,367,331.2,366.88,331.13Z" style="fill:#455a64"></path><path d="M337.92,314.08c-6.79,9-13.61,18-20.37,27.09q-5.07,6.79-10.16,13.58c-1.5,2-3,3.83-5.48,4.53a25,25,0,0,1-3.76.63l-4.2.51q-16.72,2.07-33.46,4.12a63.63,63.63,0,0,1-8.39.62,53.22,53.22,0,0,1-8.34-1,65.51,65.51,0,0,0-15.13-.81,80,80,0,0,0-28.85,7.84c-1.15.55-2.29,1.11-3.42,1.69-.09.05,0,.18.09.14a87.79,87.79,0,0,1,29.68-8.49,64.38,64.38,0,0,1,15.26.3c2.7.39,5.37,1,8.09,1.25a42,42,0,0,0,8.39-.2c5.6-.59,11.19-1.36,16.78-2.05l16.8-2.07c2.79-.35,5.59-.64,8.36-1.05a10.13,10.13,0,0,0,6.08-2.68,53.52,53.52,0,0,0,4.62-6.06c1.7-2.33,3.42-4.65,5.13-7,6.71-9.08,13.36-18.2,20-27.3l2.5-3.42C338.27,314.12,338,313.94,337.92,314.08Z" style="fill:#455a64"></path><path d="M316.23,222.45c-2.11,1.4-44.21,55.78-44.5,58.86,0,.34,2.49,2,8.32,7.37.28.25.56,2.37.83,5.55,1,11.95,1.82,38.95,1.82,38.95l44.1-10.85-7.54-46-1.95-11.95s5.27-30.63,5.24-34.06S318.34,221,316.23,222.45Z" style="fill:#ad6359"></path><path d="M316.23,222.45c-2.11,1.4-44.21,55.78-44.5,58.86,0,.34,2.49,2,8.32,7.37.28.25.56,2.37.83,5.55,7.22-3.48,29.38-13.72,38.38-17.87l-1.95-11.95s5.27-30.63,5.24-34.06S318.34,221,316.23,222.45Z" style="fill:#FFC727"></path><path d="M282.09,271.83a9.74,9.74,0,0,1,1.52,1.92,10.44,10.44,0,0,1,1.54,4.59,9.8,9.8,0,0,1-.87,4.8,11.69,11.69,0,0,1-3,3.83c-.07.06-.16-.05-.09-.11a10.06,10.06,0,0,0,3-8.56,9.88,9.88,0,0,0-1.52-4.16,10.25,10.25,0,0,0-1.39-1.69,7.87,7.87,0,0,0-.81-.72c-.3-.23-.56-.36-.63-.75a.35.35,0,0,1,.29-.39C280.82,270.44,281.67,271.41,282.09,271.83Z" style="fill:#fff"></path><path d="M321.38,239.13a7.45,7.45,0,0,1-3.87,2.35,19.62,19.62,0,0,1-4.76.76,18.72,18.72,0,0,1-4.72-.4,19.36,19.36,0,0,1-2.23-.61,7.83,7.83,0,0,1-2.15-.95.14.14,0,0,1,.09-.25c.68.1,1.35.39,2,.55A21.91,21.91,0,0,0,308,241a23.26,23.26,0,0,0,4.49.27,14.49,14.49,0,0,0,8.4-2.62C321.21,238.48,321.6,238.84,321.38,239.13Z" style="fill:#fff"></path><path d="M316.34,271.8c-8.87,4.28-17.76,8.51-26.59,12.88-2.5,1.24-5,2.45-7.49,3.74-.09,0-.14-.09-.06-.14a275,275,0,0,1,26.22-13.65c2.56-1.14,5.16-2.18,7.76-3.2A.2.2,0,0,1,316.34,271.8Z" style="fill:#fff"></path><path d="M283.74,288.36a.58.58,0,0,1,.08.18,1.8,1.8,0,0,1,0,.22c0,.14,0,.28,0,.41,0,.3.05.59.06.88,0,.57,0,1.14,0,1.71,0,.08-.14.08-.14,0,0-.56-.09-1.13-.15-1.69,0-.27-.06-.55-.08-.82s0-.29-.05-.44a.81.81,0,0,1,0-.41A.15.15,0,0,1,283.74,288.36Z" style="fill:#fff"></path><path d="M287.92,286.39a.44.44,0,0,1,.09.18c0,.07,0,.15,0,.22s0,.27,0,.41a8.49,8.49,0,0,1,.05.88c0,.57,0,1.14,0,1.71,0,.08-.14.08-.14,0,0-.57-.09-1.13-.15-1.69l-.09-.82c0-.15,0-.29,0-.44a.81.81,0,0,1,0-.41A.13.13,0,0,1,287.92,286.39Z" style="fill:#fff"></path><path d="M292.11,284.42a.61.61,0,0,1,.09.18c0,.07,0,.15,0,.22s0,.27,0,.41a8.49,8.49,0,0,1,.05.88q0,.86,0,1.71c0,.07-.13.08-.14,0,0-.57-.08-1.13-.14-1.69l-.09-.82c0-.15,0-.29-.05-.44a1.13,1.13,0,0,1,0-.41A.14.14,0,0,1,292.11,284.42Z" style="fill:#fff"></path><path d="M296.3,282.45a.42.42,0,0,1,.08.18,1.46,1.46,0,0,1,0,.22c0,.13,0,.27,0,.41,0,.29,0,.58.05.87q0,.86,0,1.71a.07.07,0,0,1-.14,0c0-.57-.08-1.13-.15-1.69,0-.28-.05-.55-.08-.83s0-.29-.05-.43a1,1,0,0,1,0-.42A.14.14,0,0,1,296.3,282.45Z" style="fill:#fff"></path><path d="M300.49,280.48a.58.58,0,0,1,.08.18l0,.22c0,.13,0,.27,0,.41s0,.58.05.87c0,.57,0,1.14,0,1.71,0,.08-.14.09-.14,0,0-.56-.09-1.12-.15-1.68,0-.28-.05-.55-.08-.83s0-.29-.05-.43a.85.85,0,0,1,0-.42A.14.14,0,0,1,300.49,280.48Z" style="fill:#fff"></path><path d="M304.67,278.51a.44.44,0,0,1,.09.18,1.49,1.49,0,0,1,0,.21c0,.14,0,.28,0,.42a8.46,8.46,0,0,1,.05.87c0,.57,0,1.14,0,1.71,0,.08-.14.08-.14,0,0-.56-.09-1.12-.15-1.69,0-.27-.06-.54-.08-.82s0-.29-.05-.43a.85.85,0,0,1,0-.42A.13.13,0,0,1,304.67,278.51Z" style="fill:#fff"></path><path d="M308.86,276.54a.51.51,0,0,1,.09.18c0,.07,0,.14,0,.21s0,.28,0,.41c0,.3.05.59.05.88q0,.86,0,1.71c0,.08-.13.08-.14,0,0-.56-.08-1.13-.14-1.69l-.09-.82c0-.14,0-.29,0-.43a1,1,0,0,1,0-.42C308.66,276.48,308.81,276.45,308.86,276.54Z" style="fill:#fff"></path><path d="M313.05,274.56a.42.42,0,0,1,.08.18,1.92,1.92,0,0,1,0,.22c0,.14,0,.28,0,.41,0,.3,0,.59.05.88q0,.86,0,1.71c0,.08-.13.08-.14,0,0-.56-.08-1.13-.15-1.69,0-.27-.05-.55-.08-.82s0-.29-.05-.44a1,1,0,0,1,0-.41A.15.15,0,0,1,313.05,274.56Z" style="fill:#fff"></path><path d="M317.24,272.59a.42.42,0,0,1,.08.18l0,.22c0,.14,0,.27,0,.41,0,.29,0,.58.05.88q0,.86,0,1.71c0,.08-.14.08-.14,0,0-.57-.09-1.13-.15-1.69,0-.27-.05-.55-.08-.82s0-.29-.05-.44a.81.81,0,0,1,0-.41A.14.14,0,0,1,317.24,272.59Z" style="fill:#fff"></path><path d="M321.51,289.24,277,298.69s5.34,62.32,5.14,63c0,0-22.72,3-40.91,2,0,0-30.59-13.3-51.48,9.65l-3,40.26c58.19,7.06,136.11,3.79,146.44-16C344.45,376,321.51,289.24,321.51,289.24Z" style="fill:#263238"></path><path d="M282.06,361.43c-4.94,0-13.22.93-18.16,1.13s-9.79.47-14.68.73c-2.81.14-5.17,0-8,.24a.08.08,0,0,0,0,.16,196.88,196.88,0,0,0,29-.57c2.82-.25,9.09-.92,11.89-1.34C282.31,361.76,282.54,361.43,282.06,361.43Z" style="fill:#455a64"></path><path d="M238.47,359.45a35.23,35.23,0,0,0-6.12-5.38c-.07-.06-.16.07-.1.13a63.34,63.34,0,0,1,5.49,5.86,55.4,55.4,0,0,1,5.09,6.36c0,.05.1,0,.07-.05A38.56,38.56,0,0,0,238.47,359.45Z" style="fill:#455a64"></path><path d="M336.33,367.6c-.05-2.2-.25-4.4-.42-6.6-.33-4.35-.76-8.69-1.34-13-1.17-8.72-2.69-17.37-4.63-25.94-.55-2.4-1.11-4.79-1.72-7.17a65.84,65.84,0,0,0-2.07-7.2c-.07-.19-.41-.17-.37.05.31,2.11.88,4.21,1.34,6.29s.95,4.22,1.4,6.34c.91,4.31,1.75,8.65,2.51,13,1.52,8.64,2.74,17.32,3.77,26,.29,2.45.53,4.9.79,7.35.14,1.22.63,11,.65,12.28,0,.11.18.1.17,0C336.31,377.92,336.41,370.87,336.33,367.6Z" style="fill:#455a64"></path><path d="M282.05,354.67c-.1-1.21-.5-5.86-1-6.76a.06.06,0,0,0-.11,0c-.33,1,.12,5.81.23,7s.76,6.36,1,6.77a.09.09,0,0,0,.15,0A65.36,65.36,0,0,0,282.05,354.67Z" style="fill:#455a64"></path><path d="M323.06,374.55c-.16-7.84-.7-15.67-1.49-23.47-1.56-15.39-4.1-30.67-6.82-45.89-.34-1.87-.67-3.73-1-5.6,0-.1-.17-.06-.15.05,2.54,15.22,5.15,30.45,6.88,45.8.85,7.62,1.51,15.26,1.83,22.92.16,3.72.26,7.44.24,11.17a43.35,43.35,0,0,1-.86,9.3,17.18,17.18,0,0,1-4.1,8.14,19.89,19.89,0,0,1-7.9,4.73,69.57,69.57,0,0,1-9.85,2.47q-5.52,1.09-11.1,1.78c-14.89,1.87-29.94,1.89-44.92,1.59-15.36-.31-30.72-.88-46.08-1.05-1.92,0-3.85-.05-5.77-.09a.08.08,0,0,0,0,.16c7.92.25,15.84.59,23.76.84s15.7.48,23.55.69c15.16.42,30.37.63,45.47-1a144.91,144.91,0,0,0,21.71-3.74,29.77,29.77,0,0,0,8.53-3.46,15.78,15.78,0,0,0,5.81-6.57C323.52,387.57,323.2,380.77,323.06,374.55Z" style="fill:#455a64"></path><path d="M321.58,296.21c-10.88,1.69-21.73,3.5-32.48,5.88-3.06.67-6.09,1.48-9.17,2.09-.1,0-.06.17.05.15,2.71-.5,5.45-.82,8.17-1.26s5.44-.88,8.15-1.36c5.41-1,10.77-2.15,16.14-3.29,3.07-.66,6.13-1.35,9.18-2.05C321.73,296.35,321.68,296.19,321.58,296.21Z" style="fill:#455a64"></path><path d="M94.14,353c.58-2.92,3.63-13.44,8-20,2.11-3.18,9.11-11.66,11.68-10.24s.73,4.09.73,4.09,3.5-3.14,5.95-1.47-.53,5.72-.53,5.72,3.82-3,6.15-1.12-1.36,5.41-1.36,5.41,3.37-2.87,4.65-.55c1.53,2.8-5.28,7.39-7.43,11-.49.83-8.71,17.42-8.71,17.42Z" style="fill:#ad6359"></path><path d="M124.71,335.5c-5,3.39-6.61,5.74-9,11.19,0,.11-.22.07-.18-.05,1.85-5.55,3.44-8.79,9-11.39C124.83,335.12,125,335.34,124.71,335.5Z" style="fill:#263238"></path><path d="M120.08,330.92c-4.89,4-6.65,6.51-9.57,12a.08.08,0,0,1-.14-.06c2.41-5.67,4.06-8.86,9.47-12.19C120.09,330.56,120.31,330.74,120.08,330.92Z" style="fill:#263238"></path><path d="M114.13,327.22c-4.46,4.19-6.51,6.89-8.65,12.62a.12.12,0,0,1-.22-.07c1.62-6,4.15-9.43,8.72-12.67C114.3,326.88,114.41,327,114.13,327.22Z" style="fill:#263238"></path><path d="M112.76,367.59s5.94-4.7,8.1-7.34,6.58-15.43,3.87-16.54c-3.5-1.43-7.5,5.45-9,9.08,0,0-8.08-3.33-12,1S112.76,367.59,112.76,367.59Z" style="fill:#ad6359"></path><path d="M123.64,343.64c-4.13,1-5.83,5.88-7.56,9.28a.36.36,0,0,1-.57.11c-3.48-1.17-8.73-1.8-11.85.51a.09.09,0,1,1-.11-.13c3-2.94,8.21-2.74,11.94-1.21,1.73-3.52,3.64-8.35,8.14-8.61C123.66,343.59,123.66,343.63,123.64,343.64Z" style="fill:#263238"></path><path d="M141.23,368.08a106.05,106.05,0,0,1-37.71,34.48c-9.75,5.34-20-.89-21.64-4.83-3.6-8.44,8.94-41.17,13.46-47.77,1.35-2,3.36,2,9.66,7.46,3,2.6,14.43,1.93,13.62,5.16-.58,2.3-4.32,8.82-3.8,8.78,1.3-.11,10.76-7,20.78-13.44C149.4,349.05,144.45,363.36,141.23,368.08Z" style="fill:#ad6359"></path><path d="M114.84,371.1c-.6.8-9.25,18.47-11.31,22.11a.08.08,0,0,0,.14.08c2.2-3.56,4.48-7.07,6.43-10.77,1-1.83,2-3.66,2.74-5.57.37-.92.72-1.84,1.08-2.76a16.09,16.09,0,0,0,1.07-3C115,371.1,114.9,371,114.84,371.1Z" style="fill:#263238"></path><path d="M115.65,369.69l22,8.43s6.76-9.74,9.75-15.66c3.94-7.84,2-11.14-8-7.1C132.78,358.07,115.65,369.69,115.65,369.69Z" style="fill:#FFC727"></path><path d="M118.69,368.45c3.29,1,6.56,2.06,9.79,3.26,1.61.59,3.21,1.22,4.81,1.86s3.11,1.46,4.71,2.08c.09,0,0,.17-.06.13-1.56-.7-3.23-1.2-4.83-1.82s-3.2-1.23-4.81-1.83c-3.22-1.2-6.43-2.41-9.67-3.54C118.54,368.56,118.6,368.43,118.69,368.45Z" style="fill:#263238"></path><path d="M159.06,370.24h-4.17c-.27-2-.88-5.35-1.88-7.12a27.5,27.5,0,0,1,.56,7.12h-3.66c-.32-2.84-1.19-8-3.42-11.61.1.38,1.94,7.33,1.5,11.61H115.75c-1.43-6.81-.32-14.21-.88-12.59a45.39,45.39,0,0,0-2,12.59h-3.59a22.34,22.34,0,0,1,.29-5.14c.47-2.26-1.38,2.21-1.62,5.14h-2.28s-.46-9.7,3.09-16.6c4.71-9.2,2-12.6,3.89-22.66,2.19-11.45,17.24-25.3,32.28-10.83a24.07,24.07,0,0,1,8.28,18c.07,8.19-1.79,12.51,1,16.72A27.3,27.3,0,0,1,159.06,370.24Z" style="fill:#263238"></path><path d="M104.18,368.87a25.73,25.73,0,0,1,1-10.38,31.45,31.45,0,0,1,1.86-4.92c.36-.79.81-1.57,1.19-2.33a16.32,16.32,0,0,0,1-2.31,46.94,46.94,0,0,0,1.94-10.08c.21-1.73.45-3.46.8-5.17a23.78,23.78,0,0,1,1.58-5,44.62,44.62,0,0,0-1.6,10.22c-.13,1.72-.3,3.46-.54,5.19a28.8,28.8,0,0,1-1.23,5.15,19.59,19.59,0,0,1-1.09,2.43c-.42.79-.83,1.51-1.21,2.29a36.41,36.41,0,0,0-2,4.74,34,34,0,0,0-1.27,5c-.16.85-.26,1.7-.34,2.56A25,25,0,0,0,104.18,368.87Z" style="fill:#263238"></path><path d="M153.19,338.1c.07,1.39,0,2.78,0,4.16s0,2.76.15,4.13a24.36,24.36,0,0,0,.69,4c.08.33.19.65.28,1l.08.24.07.2.22.43c.32.58.69,1.17,1.06,1.76.71,1.19,1.42,2.41,2,3.68a27.15,27.15,0,0,1,1.54,3.93,23.07,23.07,0,0,1,.83,4.13,20.13,20.13,0,0,1,0,4.18,26.51,26.51,0,0,0-1.56-8.07,38.64,38.64,0,0,0-3.67-7.33c-.36-.6-.72-1.18-1.07-1.82q-.12-.24-.24-.51c0-.09-.08-.19-.11-.28l-.07-.26c-.1-.34-.21-.68-.28-1a22.07,22.07,0,0,1-.55-4.19,34.54,34.54,0,0,1,.14-4.2C152.84,340.85,153,339.48,153.19,338.1Z" style="fill:#263238"></path><path d="M186.15,415.1s24.08-22.2,7.52-54.27c0,0-10.48,1.66-13.23,1.12-8.34-1.62-14.59-6.24-24.2-9.82s-16.23-.76-20.05,5.76c-.95,1.62-5.63,25.4-2.21,33.84,2.69,6.63,13.59,8.55,13.59,8.55S167.82,417.12,186.15,415.1Z" style="fill:#FFC727"></path><path d="M148.55,356.79c-.07,1.09-3.93,8.69-8.74,9.26-1.56.18-2.94-8.32-2.94-8.32l-.24-.61-3.43-8.46,9.23-8.35,1.34-1.12s.79,2.38,1.74,5.35c0,.14.09.27.13.42s.12.32.16.48c.15.44.3.9.44,1.35s.21.68.31,1,.2.72.31,1.09A58.64,58.64,0,0,1,148.55,356.79Z" style="fill:#ad6359"></path><path d="M145.51,344.54a18.36,18.36,0,0,1-8.88,12.58l-3.43-8.46,9.23-8.35,1.34-1.12S144.56,341.57,145.51,344.54Z" style="fill:#263238"></path><path d="M118,339.25c3.58,15.62,13.34,15.24,16.71,14.46,3.06-.7,13.38-3.49,11.43-19.4s-10.35-19.18-17.42-17.94S114.42,323.63,118,339.25Z" style="fill:#ad6359"></path><path d="M120.34,336.21a10,10,0,0,0,1-.53,1.8,1.8,0,0,0,.89-.74.56.56,0,0,0-.2-.66,1.39,1.39,0,0,0-1.43.09,2.07,2.07,0,0,0-1,1.08A.61.61,0,0,0,120.34,336.21Z" style="fill:#263238"></path><path d="M131.06,333.31c-.38.06-.73.06-1.11.09a1.71,1.71,0,0,1-1.14-.11.57.57,0,0,1-.2-.67,1.42,1.42,0,0,1,1.23-.72,2.1,2.1,0,0,1,1.47.32A.61.61,0,0,1,131.06,333.31Z" style="fill:#263238"></path><path d="M130.19,337.8c0-.05.1,0,.11.07.26,1.06.73,2.23,1.78,2.31,0,0,0,.06,0,.06C130.88,340.4,130.27,338.84,130.19,337.8Z" style="fill:#263238"></path><path d="M130.82,336.44c1.66-.6,2.74,2.75,1.2,3.31S129.44,336.94,130.82,336.44Z" style="fill:#263238"></path><path d="M131.54,336.4c.35.1.75.34,1.11.26s.62-.54.78-1c0-.05,0,0,.07,0a1.28,1.28,0,0,1-.48,1.69,1.3,1.3,0,0,1-1.6-.73C131.35,336.57,131.4,336.36,131.54,336.4Z" style="fill:#263238"></path><path d="M123.53,339.42s-.07.07,0,.11c.37,1,.63,2.27-.19,2.92,0,0,0,.07,0,.06C124.41,342,124.05,340.33,123.53,339.42Z" style="fill:#263238"></path><path d="M122.25,338.64c-1.71.42-.74,3.81.84,3.42S123.68,338.28,122.25,338.64Z" style="fill:#263238"></path><path d="M121.6,339.07c-.21.25-.38.65-.7.77s-.74-.16-1.08-.44c0,0,0,0,0,.05.17.65.58,1.26,1.23,1.21s.86-.73.83-1.41C121.83,339.12,121.69,339,121.6,339.07Z" style="fill:#263238"></path><path d="M132.24,345.93c-.16.33-.28.75-.64.92a2.82,2.82,0,0,1-1.19.16,0,0,0,0,0,0,.06,1.47,1.47,0,0,0,1.51.08,1.19,1.19,0,0,0,.47-1.21A.06.06,0,0,0,132.24,345.93Z" style="fill:#263238"></path><path d="M126.72,343.51s.26,1.62.49,2.36c0,.07.21,0,.46,0h0a3.64,3.64,0,0,0,3-2.35c0-.09-.09-.13-.14-.07a5.48,5.48,0,0,1-2.91,1.9c-.11-.19-.36-2.79-.48-2.77a6.59,6.59,0,0,0-1.55.9c-.65-3.37-.76-6.81-1.45-10.16,0-.12-.21-.1-.21,0a55.41,55.41,0,0,0,1.1,11C125.12,344.74,126.46,343.72,126.72,343.51Z" style="fill:#263238"></path><path d="M146.23,335.33c-4,1.12-9-10.61-9.58-12.06.33.93,2,5.87,1.74,6.19a3.85,3.85,0,0,1-1.31.16h0a11.91,11.91,0,0,0-.71-1.73c-.12-.27.08.63.28,1.75l-.8,0a14.87,14.87,0,0,0-1.58-3.66c-.26-.44.29,1.72.43,3.71a49.5,49.5,0,0,0-10.88,1.47c-1,.28-1.84.56-2.58.83-.47-1.46-.8-3.08-.8-2.71a15.21,15.21,0,0,0,.25,2.92l-1.09.45c-.76-2.05-.83-5.68-1-5.06a15.34,15.34,0,0,0-.38,5.75c-1.32.72-1.63,1.13-1.78.77a18.13,18.13,0,0,1,1.84-12.41c3.44-6.2,12.88-10.49,20.69-5.12,0,0,5.5,1.52,7.74,6.08S148.52,334.69,146.23,335.33Z" style="fill:#263238"></path><path d="M143.94,336.08s1.79-5.84,4.34-5.35,2.26,8.2,0,10a2.71,2.71,0,0,1-3.9-.27Z" style="fill:#ad6359"></path><path d="M148.14,332.94a0,0,0,0,1,0,.07c-1.55,1.29-2,3.24-2.06,5.16a1.49,1.49,0,0,1,2-1.07c.06,0,0,.1,0,.11a1.67,1.67,0,0,0-1.57,1.11,8.8,8.8,0,0,0-.38,1.69c0,.18-.34.19-.34,0V340C145,337.7,145.78,334,148.14,332.94Z" style="fill:#263238"></path><path d="M162.26,359.6c13.09,16.26,31,43.88,23.5,50.32-12.29,10.59-48.78,17.41-57.16,18.62-3.61.53-11.45-23-9.11-26.13s41-6.23,41.24-8.61c.12-1.35-3.31-12.84-7.44-27.13C148.52,350.18,158.51,355,162.26,359.6Z" style="fill:#ad6359"></path><path d="M125.79,400.31s-11.11.18-18.38.64c-4,.26-11,1.33-13.85,2.88-4.32,2.32-20.92,14.78-18,18.87,2.66,3.71,15.56-8.82,15.56-8.82S77,425.37,81,429.24,97.73,417,97.73,417s-14.25,12.13-9.48,15.46c3.61,2.52,15.93-11.4,15.93-11.4S92,431.59,95.6,434.34c4,3,16.15-9.1,16.15-9.1,10.33,5.45,17.48,3.82,22.43,2.06C135.38,426.87,125.79,400.31,125.79,400.31Z" style="fill:#ad6359"></path><path d="M95.77,409.6c-1.71,1.29-3.45,2.58-5,4s-3.13,2.93-4.57,4.51a36.65,36.65,0,0,0-5,6.67c2.84-4.09,8.44-9.32,10-10.76s3.1-3,4.69-4.38C95.87,409.62,95.81,409.57,95.77,409.6Z" style="fill:#263238"></path><path d="M101.06,415.24c-2.11,1.74-4.27,3.39-6.31,5.23s-3.78,3.73-5.68,5.69c-.14.15,0,.18.14,0,2-1.88,3.94-3.47,5.93-5.33s3.91-3.79,6-5.57C101.14,415.26,101.09,415.22,101.06,415.24Z" style="fill:#263238"></path><path d="M106.47,419.27a61,61,0,0,0-9,8.72c-.14.16,0,.18.18,0,2.95-3,5.24-5.3,8.94-8.64C106.62,419.33,106.54,419.22,106.47,419.27Z" style="fill:#263238"></path><path d="M134.06,398.89c-1.56,0-4.83.75-8.48,1-8.21.54-19.83.78-24,1.09-11.18.84-17.78,9.25-20.85,12.21a38.5,38.5,0,0,0-4.94,5.87c-.76,1.15-1.46,2.78-.39,4,1.3,1.49,6-.24,10.84-4.82.17-.17.06-.27-.12-.11-6.79,5.77-9.56,5.19-10.31,4.25-.48-.61-.06-1.69.34-2.53a16.12,16.12,0,0,1,2.38-3.32,68.4,68.4,0,0,1,10.25-9.43,26.83,26.83,0,0,1,13.88-5.6c3.59-.38,14.67-.55,22.94-1.16,3.62-.27,6.87-1.07,8.44-1.26C134.19,399.07,134.17,398.89,134.06,398.89Z" style="fill:#263238"></path><path d="M179,380.23l-23.6.45s-3.06-11.46-3.86-18.05c-1.05-8.71,1.94-11.14,9.94-3.95C166.81,363.49,179,380.23,179,380.23Z" style="fill:#FFC727"></path><path d="M158.26,380.63c-.26,0-2.68-.07-2.86,0-.32-1.36-1.93-7.69-2.12-8.34,0-.11-.16-.08-.14,0,.07.39.33,1.85.64,3.48l0-.06c-.16-.29-.35-.56-.53-.84s-.33-.6-.49-.9c-.05-.1-.19,0-.14.08.17.29.35.57.49.87s.26.56.4.84l.45.82,0,0c.35,1.84.72,3.71.92,4.39a27.54,27.54,0,0,0,3.4-.29C158.31,380.71,158.3,380.64,158.26,380.63Z" style="fill:#263238"></path><path d="M176.54,378c-3.44-.17-6.87-.29-10.32-.26-1.71,0-3.43.06-5.15.13s-3.42.31-5.14.35c-.09,0-.08.15,0,.15,1.71-.14,3.45,0,5.16-.08s3.44-.07,5.16-.09c3.43,0,6.86-.09,10.29-.05C176.65,378.18,176.63,378,176.54,378Z" style="fill:#263238"></path><path d="M170.17,368.44s-.08,0-.06,0a142.39,142.39,0,0,0,8.61,11.59,13.66,13.66,0,0,0-1.83.21,16.08,16.08,0,0,0,2.42,0C179.36,380.28,171.05,369.2,170.17,368.44Z" style="fill:#263238"></path></g><g id="freepik--Hearts--inject-25"><path d="M143.74,287.14c-2.73,6.48-9.92,10.66-9.92,10.66s-7.64-3.28-11.13-9.38c-2.92-5.08-1.62-10.85,2.4-12.33,5.77-2.14,7.9,8,7.9,8s.88-10.32,6.87-8.91C144,276.17,146,281.74,143.74,287.14Z" style="fill:#FFC727"></path><path d="M115,269.47c.65,5.71-2.8,11.57-2.8,11.57s-6.75.72-11.68-2.22c-4.12-2.46-5.5-7.09-3.23-9.76,3.25-3.83,8.83,2.54,8.83,2.54s-3.5-7.7,1.33-9.09C110.79,261.54,114.43,264.71,115,269.47Z" style="fill:#FFC727"></path><path d="M151.82,216c.65,5.71-2.8,11.56-2.8,11.56s-6.75.73-11.68-2.22c-4.12-2.45-5.5-7.08-3.23-9.75,3.25-3.83,8.83,2.54,8.83,2.54s-3.5-7.7,1.33-9.09C147.64,208.11,151.28,211.28,151.82,216Z" style="fill:#FFC727"></path><path d="M136.43,245.61c-2.21,3.53-6.82,5.29-6.82,5.29s-4.15-2.64-5.62-6.54c-1.22-3.26.09-6.51,2.59-7,3.57-.7,3.85,5.43,3.85,5.43s1.5-6,4.87-4.55C137.65,239.23,138.28,242.67,136.43,245.61Z" style="fill:#FFC727"></path><path d="M120.17,199a9.45,9.45,0,0,1-2.35,4.62,9.41,9.41,0,0,1-4.74-2.12c-1.49-1.46-1.61-3.56-.38-4.46,1.76-1.3,3.49,2,3.49,2s-.71-3.62,1.48-3.72C119.2,195.17,120.42,196.88,120.17,199Z" style="fill:#FFC727"></path></g></svg>