<svg id="Capa_1" enable-background="new 0 0 504.5 504.5" height="512" viewBox="0 0 504.5 504.5" width="512" xmlns="http://www.w3.org/2000/svg"><path d="m267.25 15h-7.5v-7.5c0-4.142-3.358-7.5-7.5-7.5s-7.5 3.358-7.5 7.5v7.5h-7.5c-4.142 0-7.5 3.358-7.5 7.5s3.358 7.5 7.5 7.5h7.5v42.5h15v-42.5h7.5c4.142 0 7.5-3.358 7.5-7.5s-3.358-7.5-7.5-7.5z" fill="#ff9a42"/><path d="m387.75 187.847h-30v166h30c45.84 0 83-37.16 83-83s-37.161-83-83-83z" fill="#db2116"/><path d="m440.75 270.847c0-45.84-37.16-83-83-83h-241c-45.84 0-83 37.16-83 83s37.16 83 83 83h241c45.839 0 83-37.16 83-83z" fill="#ff3a2f"/><path d="m372.75 97.5c-55.512 0-102.763 35.34-120.5 84.748-17.737-49.408-64.988-84.748-120.5-84.748-70.692 0-128 57.308-128 128 0 49.629 28.246 92.659 69.538 113.897l51.38-16.154c-50.818-3.629-90.918-46.001-90.918-97.743 0-54.124 43.876-98 98-98s98 43.876 98 98h45c0-54.124 43.876-98 98-98s98 43.876 98 98c0-70.692-30.543-128-98-128z" fill="#ffba48"/><path d="m372.75 97.5c54.124 0 98 57.308 98 128 0 51.742-40.1 94.113-90.917 97.743l51.379 16.154c41.292-21.238 69.538-64.268 69.538-113.897 0-70.692-57.308-128-128-128z" fill="#ff9a42"/><path d="m252.25 52.5-10 30 10 30c16.569 0 30-13.431 30-30s-13.432-30-30-30z" fill="#2fb3ea"/><path d="m222.25 82.5c0 16.569 13.431 30 30 30v-60c-16.569 0-30 13.431-30 30z" fill="#25d4f2"/><path d="m252.25 112.5c-16.569 0-30 13.431-30 30v182h60v-182c0-16.569-13.432-30-30-30z" fill="#ff9a42"/><g fill="#fff"><circle cx="252.25" cy="142.5" r="7.5"/><circle cx="252.25" cy="205.31" r="7.5"/><circle cx="252.25" cy="268.121" r="7.5"/></g><path d="m369 328.823-116.75-4.323-116.75 4.323-58.375 25.677 175.125 60 175.125-60z" fill="#ff3a2f"/><path d="m427.375 354.5c-21.38 0-41.963-7.401-58.375-20.677-16.412 13.276-36.995 20.677-58.375 20.677s-41.963-7.401-58.375-20.677c-16.411 13.276-36.995 20.677-58.375 20.677s-41.963-7.4-58.375-20.677c-16.411 13.277-36.994 20.677-58.375 20.677-26.612 0-51.988-11.465-69.624-31.457-5.48-6.212-4.887-15.691 1.326-21.171 6.211-5.482 15.691-4.887 21.171 1.326 11.943 13.538 29.12 21.302 47.126 21.302 18.008 0 35.185-7.764 47.126-21.302 2.848-3.228 6.944-5.077 11.249-5.077 4.304 0 8.401 1.849 11.249 5.077 11.942 13.538 29.119 21.302 47.126 21.302s35.184-7.764 47.126-21.302c2.848-3.228 6.944-5.077 11.249-5.077s8.401 1.849 11.249 5.077c11.942 13.538 29.119 21.302 47.126 21.302s35.184-7.765 47.126-21.302c2.848-3.228 6.944-5.077 11.249-5.077s8.401 1.849 11.249 5.077c11.942 13.538 29.119 21.302 47.126 21.302 18.008 0 35.185-7.764 47.126-21.302 5.481-6.212 14.96-6.806 21.172-1.326 6.213 5.48 6.807 14.959 1.326 21.172-17.633 19.991-43.01 31.456-69.623 31.456z" fill="#ffba48"/><path d="m395.75 369.5h60v120h-60z" fill="#ff9a42"/><path d="m48.75 369.5h377v120h-377z" fill="#ffba48"/><circle cx="346.5" cy="429.5" fill="#fff" r="15"/><circle cx="158" cy="429.5" fill="#fff" r="15"/><path d="m267.25 414.5h-30c-8.284 0-15 6.716-15 15s6.716 15 15 15h30c8.284 0 15-6.716 15-15s-6.716-15-15-15z" fill="#ff3a2f"/><path d="m78.75 414.5h-30c-8.284 0-15 6.716-15 15s6.716 15 15 15h30c8.284 0 15-6.716 15-15s-6.716-15-15-15z" fill="#0abf52"/><path d="m455.75 354.5h-30v30h30c8.284 0 15-6.716 15-15s-6.716-15-15-15z" fill="#ff7a3c"/><path d="m440.75 369.5c0-8.284-6.716-15-15-15h-377c-8.284 0-15 6.716-15 15s6.716 15 15 15h377c8.284 0 15-6.716 15-15z" fill="#ff9a42"/><path d="m455.75 474.5h-30v30h30c8.284 0 15-6.716 15-15s-6.716-15-15-15z" fill="#ff7a3c"/><path d="m440.75 489.5c0-8.284-6.716-15-15-15h-377c-8.284 0-15 6.716-15 15s6.716 15 15 15h377c8.284 0 15-6.716 15-15z" fill="#ff9a42"/><path d="m455.75 414.5h-30v30h30c8.284 0 15-6.716 15-15s-6.716-15-15-15z" fill="#1da575"/><circle cx="425.75" cy="429.5" fill="#0abf52" r="15"/></svg>