<?xml version="1.0" standalone="no"?>
<!DOCTYPE svg PUBLIC "-//W3C//DTD SVG 20010904//EN"
 "http://www.w3.org/TR/2001/REC-SVG-20010904/DTD/svg10.dtd">
<svg version="1.0" xmlns="http://www.w3.org/2000/svg"
 viewBox="0 0 610.000000 510.000000"
 preserveAspectRatio="xMidYMid meet">

<g transform="translate(0.000000,510.000000) scale(0.100000,-0.100000)"
fill="#000000" stroke="none">
<path d="M2072 3333 c4 -763 0 -708 65 -918 119 -384 483 -799 858 -977 121
-57 144 -56 275 8 296 146 567 411 738 724 62 114 98 203 135 340 l31 115 4
703 3 702 -1056 0 -1056 0 3 -697z m1018 87 l0 -540 -477 2 -478 3 -3 525 c-1
289 0 531 3 538 3 9 109 12 480 12 l475 0 0 -540z m1025 0 l0 -535 -477 -3
-478 -2 0 540 0 540 478 -2 477 -3 0 -535z m-1025 -1280 c0 -369 -2 -670 -5
-670 -3 0 -40 18 -83 39 -248 125 -490 351 -649 606 -96 153 -156 296 -189
450 -17 80 -34 226 -27 238 2 4 218 7 479 7 l474 0 0 -670z m1025 598 c-31
-341 -186 -651 -464 -928 -144 -143 -255 -227 -398 -299 -45 -23 -84 -41 -87
-41 -3 0 -6 301 -6 670 l0 670 481 0 480 0 -6 -72z"/>
<path d="M2460 3420 l0 -330 190 0 190 0 0 30 0 29 -142 3 -143 3 0 120 0 120
98 3 97 3 0 29 0 30 -100 0 -101 0 3 113 3 112 143 3 142 3 0 29 0 30 -190 0
-190 0 0 -330z"/>
<path d="M3520 3706 c-52 -24 -126 -57 -165 -75 -38 -18 -87 -40 -107 -48 -21
-8 -38 -19 -38 -23 0 -4 33 -21 73 -38 39 -17 132 -58 206 -92 l135 -60 95 41
c53 23 116 52 141 64 25 12 55 26 68 29 20 7 22 4 22 -24 0 -18 -9 -43 -20
-57 -21 -27 -19 -55 5 -80 9 -9 11 -23 4 -50 -17 -73 -13 -83 27 -83 l36 0 -7
59 c-5 47 -3 65 9 83 21 30 20 51 -4 73 -14 13 -20 31 -20 60 0 38 3 44 30 55
17 7 30 15 30 19 0 7 -410 192 -420 190 -3 0 -48 -20 -100 -43z"/>
<path d="M3402 3417 c-5 -7 -12 -27 -15 -44 -7 -36 11 -53 54 -53 35 0 108
-41 145 -83 l35 -38 55 50 c51 47 78 60 157 76 24 5 27 10 27 44 0 62 -13 64
-124 15 -54 -24 -104 -44 -111 -44 -7 0 -39 12 -71 26 -139 62 -142 63 -152
51z"/>
<path d="M2696 2533 c-142 -131 -304 -306 -312 -337 -5 -22 1 -33 39 -71 37
-37 51 -45 82 -45 32 0 46 9 109 70 40 39 78 70 84 70 7 0 12 -16 12 -40 0
-45 8 -49 35 -20 l18 20 22 -20 c12 -11 24 -20 28 -20 4 0 7 48 7 106 l0 106
64 67 c79 81 91 109 71 157 -12 29 -18 34 -39 28 -13 -3 -27 -1 -30 5 -4 6
-27 11 -51 11 -42 0 -50 -5 -139 -87z m174 57 c12 -8 4 -21 -46 -71 l-61 -61
-32 16 c-17 9 -31 20 -31 25 0 5 23 30 51 55 51 46 86 57 119 36z m70 -51 c0
-24 -14 -45 -61 -95 -34 -35 -66 -61 -71 -58 -5 3 -13 16 -18 28 -7 18 3 32
63 93 39 40 74 70 79 67 4 -3 8 -19 8 -35z m-185 -113 c13 -19 14 -29 6 -45
-25 -45 -91 -33 -91 17 0 54 56 72 85 28z m-111 -43 c14 -27 13 -29 -45 -90
-54 -56 -58 -64 -47 -82 19 -32 0 -38 -27 -9 -13 15 -34 33 -45 41 -21 15 -20
17 54 91 41 42 80 76 85 76 6 0 17 -12 25 -27z m76 -81 c0 -9 -26 -42 -57 -74
l-57 -57 -17 27 -17 27 56 57 c46 47 59 55 74 47 10 -5 18 -17 18 -27z m-246
-81 c3 -5 -1 -14 -9 -21 -22 -19 -18 -34 16 -59 l31 -23 30 22 c38 28 48 19
15 -14 -34 -34 -69 -33 -112 5 -36 32 -45 65 -23 87 14 14 44 16 52 3z"/>
<path d="M3465 2711 c-77 -20 -151 -86 -182 -161 -26 -65 -25 -209 3 -271 46
-99 120 -150 239 -164 43 -5 87 -21 154 -56 51 -27 99 -49 107 -49 12 0 41 39
32 44 -2 1 -33 17 -70 35 -69 35 -84 55 -48 66 31 10 97 92 114 142 21 62 21
190 -1 245 -42 107 -126 167 -246 173 -40 3 -85 1 -102 -4z m172 -70 c104 -48
147 -203 95 -342 -13 -32 -58 -86 -86 -101 -63 -34 -165 -26 -222 17 -65 50
-97 169 -74 279 10 49 20 67 60 107 26 26 58 49 71 52 55 10 116 5 156 -12z"/>
</g>
</svg>
